<svg xmlns="http://www.w3.org/2000/svg" width="74.84" height="46.46" viewBox="0 0 74.84 46.46">
  <g id="Group_151" data-name="Group 151" transform="translate(-845.632 -2489.379)">
    <path id="Path_281" data-name="Path 281" d="M4.153,3.066,17.368.616H49.279l11.91,2.449,4.1,7.764L66,23.181s-9.23,3.485-33.76,3.759S0,23.181,0,23.181Z" transform="translate(850 2491)" fill="#5f74d6"/>
    <g id="ps4-wireless-game-control" transform="translate(845.632 2472.703)">
      <g id="Group_139" data-name="Group 139" transform="translate(0 0)">
        <rect id="Rectangle_567" data-name="Rectangle 567" width="13" height="12" transform="translate(30.368 33.297)" fill="#3f4b81"/>
        <path id="Path_180" data-name="Path 180" d="M400.883,208.94a.664.664,0,0,0,.663-.663V206.5a.663.663,0,0,0-1.326,0v1.782A.664.664,0,0,0,400.883,208.94Z" transform="translate(-348.164 -184.912)" fill="#3f4b81"/>
        <ellipse id="Ellipse_27" data-name="Ellipse 27" cx="2.222" cy="2.222" rx="2.222" ry="2.222" transform="translate(58.455 22.05)" fill="#3f4b81"/>
        <path id="Path_181" data-name="Path 181" d="M259.325,312.706a3.745,3.745,0,1,0,3.745,3.745A3.749,3.749,0,0,0,259.325,312.706Zm-.96,5.152c0,.025-.054.065-.087.07a3.223,3.223,0,0,1-1.723-.181.653.653,0,0,1-.135-.077.266.266,0,0,1,.005-.489,1.575,1.575,0,0,1,.3-.154c.536-.2,1.075-.39,1.641-.593,0,.2,0,.382,0,.565,0,.025-.059.056-.1.07-.3.109-.6.213-.892.322a1.746,1.746,0,0,0-.2.1c0,.017,0,.033,0,.05a.57.57,0,0,0,.2.064,3.759,3.759,0,0,0,.548-.074,3.98,3.98,0,0,0,.447-.156C258.368,317.55,258.373,317.7,258.365,317.858Zm1.207-3.14a.45.45,0,0,0-.015.167q0,1.723,0,3.447v.184c-.337-.107-.65-.205-.962-.308a.118.118,0,0,1-.054-.076.477.477,0,0,1,0-.117q0-2.036,0-4.072v-.16c.093.018.173.028.25.051.44.129.881.258,1.319.395a1.784,1.784,0,0,1,.328.155,1.114,1.114,0,0,1,.595.879,1.818,1.818,0,0,1-.041.81.664.664,0,0,1-1,.37c-.034-.016-.056-.091-.057-.139,0-.46,0-.919-.005-1.379a.578.578,0,0,0-.072-.268.208.208,0,0,0-.174-.076C259.639,314.588,259.594,314.665,259.572,314.718ZM262.208,317c.236.157.247.346.009.5a2.423,2.423,0,0,1-.479.226c-.634.234-1.271.459-1.907.687-.027.01-.057.015-.106.029,0-.188-.005-.357,0-.524,0-.035.056-.081.1-.1.459-.168.921-.331,1.382-.5a1.224,1.224,0,0,0,.181-.072.389.389,0,0,0,.084-.089c-.032-.025-.06-.062-.1-.071a1.029,1.029,0,0,0-.6.042c-.3.1-.6.21-.895.316l-.154.05c0-.2,0-.387,0-.57,0-.025.046-.06.077-.07a3.225,3.225,0,0,1,2.311.088A.478.478,0,0,1,262.208,317Z" transform="translate(-221.973 -277.521)" fill="#5f74d6"/>
        <ellipse id="Ellipse_28" data-name="Ellipse 28" cx="2.222" cy="2.222" rx="2.222" ry="2.222" transform="translate(63.669 27.264)" fill="#3f4b81"/>
        <path id="Path_182" data-name="Path 182" d="M167.185,326.654a3.545,3.545,0,1,0,3.545,3.545A3.549,3.549,0,0,0,167.185,326.654Z" transform="translate(-142.356 -290.019)" fill="#3f4b81"/>
        <path id="Path_183" data-name="Path 183" d="M354.769,326.654a3.545,3.545,0,1,0,3.545,3.545A3.549,3.549,0,0,0,354.769,326.654Z" transform="translate(-305.541 -290.019)" fill="#3f4b81"/>
        <path id="Path_184" data-name="Path 184" d="M66.053,175.861a2.021,2.021,0,0,0-.934-.661v-.677a9.968,9.968,0,0,0-9-.488s-.163.138-.226.857a5.374,5.374,0,0,0-.832.246,3.317,3.317,0,0,1-1.634.3H49.943a2.076,2.076,0,0,1,.2.885v10.746a2.1,2.1,0,0,1-2.1,2.1H26.656a2.1,2.1,0,0,1-2.1-2.1V176.322a2.075,2.075,0,0,1,.2-.885H21.414a3.328,3.328,0,0,1-1.634-.3,5.382,5.382,0,0,0-.831-.246c-.064-.719-.227-.857-.227-.857a9.967,9.967,0,0,0-9,.488v.677a2.025,2.025,0,0,0-.934.661s-3.226,4.839-4.16,8.15-5.434,21.9-4.5,29.034,11.716,8.914,14.517,3.311a79.4,79.4,0,0,0,4.669-12.395,6.349,6.349,0,0,1,1.358-.806,7.7,7.7,0,0,0,9.89-.34H44.278a7.7,7.7,0,0,0,9.89.34,6.355,6.355,0,0,1,1.359.806A79.306,79.306,0,0,0,60.2,216.355c2.8,5.6,13.583,3.82,14.517-3.311s-3.565-25.723-4.5-29.034S66.053,175.861,66.053,175.861Zm-45.525,2.25a1.459,1.459,0,1,1,2.918,0v1.782a1.459,1.459,0,0,1-2.918,0Zm-9.083,2.943c.088-1.217,1.729-1.218,2.429-1.219s2.348,0,2.435,1.219a10.216,10.216,0,0,1-.423,3.05,7.59,7.59,0,0,1-1.75,1.567.422.422,0,0,1-.068.048.4.4,0,0,1-.19.049l-.031,0a.4.4,0,0,1-.18-.058.321.321,0,0,1-.05-.037,7.584,7.584,0,0,1-1.747-1.566A10.267,10.267,0,0,1,11.444,181.055Zm-2.788,7.653c-1.217-.088-1.218-1.729-1.219-2.43s0-2.348,1.219-2.435c.06,0,.131-.006.211-.006a10.138,10.138,0,0,1,2.839.429,7.56,7.56,0,0,1,1.567,1.75.419.419,0,0,1,.048.068.411.411,0,0,1,.047.221.4.4,0,0,1-.058.18.315.315,0,0,1-.037.05,7.578,7.578,0,0,1-1.567,1.747,10.136,10.136,0,0,1-2.842.43C8.785,188.714,8.715,188.711,8.656,188.707Zm7.653,2.789c-.086,1.216-1.728,1.217-2.429,1.218h0c-.7,0-2.344,0-2.433-1.218a10.252,10.252,0,0,1,.423-3.05,7.6,7.6,0,0,1,1.749-1.568.335.335,0,0,1,.079-.051.267.267,0,0,1,.052-.022.4.4,0,0,1,.319.025.41.41,0,0,1,.081.057,7.485,7.485,0,0,1,1.738,1.559A10.239,10.239,0,0,1,16.309,191.5Zm2.79-2.789c-.06,0-.13.006-.208.006a10.159,10.159,0,0,1-2.842-.43,7.586,7.586,0,0,1-1.567-1.748.436.436,0,0,1-.035-.049.4.4,0,0,1-.057-.261.374.374,0,0,1,.045-.14.428.428,0,0,1,.05-.074,7.588,7.588,0,0,1,1.564-1.746,10.109,10.109,0,0,1,2.839-.429c.08,0,.15,0,.212.006,1.216.086,1.217,1.728,1.218,2.429S20.315,188.62,19.1,188.707Zm5.731,12.342a4.341,4.341,0,1,1,4.341-4.341A4.345,4.345,0,0,1,24.829,201.05Zm12.524-1.082a4.508,4.508,0,1,1,4.508-4.508A4.513,4.513,0,0,1,37.353,199.968Zm23.324-22.186a3.018,3.018,0,1,1-3.018,3.018A3.021,3.021,0,0,1,60.677,177.782Zm-9.417.33a1.459,1.459,0,0,1,2.918,0v1.782a1.459,1.459,0,0,1-2.918,0ZM49.228,201.05a4.341,4.341,0,1,1,4.341-4.341A4.346,4.346,0,0,1,49.228,201.05Zm6.234-12.017a3.018,3.018,0,1,1,3.018-3.018A3.022,3.022,0,0,1,55.462,189.032Zm5.215,5.214a3.018,3.018,0,1,1,3.018-3.018A3.021,3.021,0,0,1,60.677,194.246Zm5.215-5.214a3.018,3.018,0,1,1,3.018-3.018A3.022,3.022,0,0,1,65.891,189.032Z" transform="translate(0 -156.529)" fill="#5f74d6"/>
        <path id="Path_261" data-name="Path 261" d="M2.222,0A2.222,2.222,0,1,1,0,2.222,2.222,2.222,0,0,1,2.222,0Z" transform="translate(53.24 27.264)" fill="#3f4b81"/>
        <ellipse id="Ellipse_30" data-name="Ellipse 30" cx="2.222" cy="2.222" rx="2.222" ry="2.222" transform="translate(58.455 32.478)" fill="#3f4b81"/>
        <path id="Path_185" data-name="Path 185" d="M164.6,208.94a.664.664,0,0,0,.663-.663V206.5a.663.663,0,0,0-1.326,0v1.782A.664.664,0,0,0,164.6,208.94Z" transform="translate(-142.617 -184.912)" fill="#3f4b81"/>
        <path id="Path_186" data-name="Path 186" d="M95.7,284.444a6.823,6.823,0,0,0-1.3,1.129,10.039,10.039,0,0,0-.341,2.637c.022.317.573.478,1.635.479l.006.4v-.4c1.063,0,1.612-.162,1.635-.479a9.978,9.978,0,0,0-.341-2.637A6.8,6.8,0,0,0,95.7,284.444Z" transform="translate(-81.82 -253.299)" fill="#3f4b81"/>
        <path id="Path_187" data-name="Path 187" d="M66.413,261.417a10.157,10.157,0,0,0-2.483-.345c-.058,0-.111,0-.154,0-.318.022-.479.572-.48,1.635s.162,1.618.48,1.641c.043,0,.093,0,.15,0a10.175,10.175,0,0,0,2.486-.346,6.815,6.815,0,0,0,1.129-1.3A6.744,6.744,0,0,0,66.413,261.417Z" transform="translate(-55.064 -232.967)" fill="#3f4b81"/>
        <path id="Path_188" data-name="Path 188" d="M95.7,234.552a6.773,6.773,0,0,0,1.3-1.128,10.017,10.017,0,0,0,.341-2.637c-.022-.318-.572-.479-1.635-.48s-1.618.162-1.641.48a10.017,10.017,0,0,0,.341,2.637A6.863,6.863,0,0,0,95.7,234.552Z" transform="translate(-81.819 -206.204)" fill="#3f4b81"/>
        <path id="Path_189" data-name="Path 189" d="M121.206,261.077c-.045,0-.1,0-.155,0a10.157,10.157,0,0,0-2.484.345,6.754,6.754,0,0,0-1.128,1.3,6.821,6.821,0,0,0,1.128,1.3,10.018,10.018,0,0,0,2.638.341c.317-.022.478-.573.479-1.635S121.523,261.1,121.206,261.077Z" transform="translate(-102.165 -232.967)" fill="#3f4b81"/>
        <path id="Path_190" data-name="Path 190" d="M194.943,191.252V202a1.3,1.3,0,0,0,1.3,1.3h21.394a1.3,1.3,0,0,0,1.3-1.3V191.252a1.289,1.289,0,0,0-.353-.885H195.3A1.289,1.289,0,0,0,194.943,191.252Z" transform="translate(-169.587 -171.459)" fill="#3f4b81"/>
      </g>
    </g>
  </g>
</svg>
