<svg id="video" xmlns="http://www.w3.org/2000/svg" width="58.607" height="66.594" viewBox="0 0 58.607 66.594">
  <path id="Path_254" data-name="Path 254" d="M82.5,216.676v31.174a5.955,5.955,0,0,1-5.938,5.938H34.9a5.955,5.955,0,0,1-5.938-5.938V216.676Zm0,0" transform="translate(-25.194 -188.493)" fill="#b5d3ff" fill-rule="evenodd"/>
  <path id="Path_255" data-name="Path 255" d="M10.25,29.181l2.23,7.7,51.425-14.9-2.23-7.7a5.955,5.955,0,0,0-7.355-4.051L14.3,21.826A5.955,5.955,0,0,0,10.25,29.181Zm0,0" transform="translate(-8.714 -8.699)" fill="#5f74d6" fill-rule="evenodd"/>
  <path id="Path_256" data-name="Path 256" d="M28.961,216.676H82.5v12.172H28.961Zm0,0" transform="translate(-25.194 -188.493)" fill="#5f74d6" fill-rule="evenodd"/>
  <path id="Path_257" data-name="Path 257" d="M217.494,360.988l-5.713-3.3-5.714-3.3v13.195l5.714-3.3Zm0,0" transform="translate(-179.264 -308.296)" fill="#ff636e" fill-rule="evenodd"/>
  <path id="Path_258" data-name="Path 258" d="M57.307,26.882H12.931L55.554,14.535a1.3,1.3,0,0,0,.888-1.611l-2.23-7.7A7.281,7.281,0,0,0,47.248,0a7.206,7.206,0,0,0-2,.285L5.226,11.878A7.256,7.256,0,0,0,.287,20.844l2.179,7.523V59.356A7.247,7.247,0,0,0,9.7,66.595H25.334a1.3,1.3,0,1,0,0-2.6H9.7a4.642,4.642,0,0,1-4.637-4.637v-17.7H56.006v17.7a4.642,4.642,0,0,1-4.637,4.637H35.739a1.3,1.3,0,0,0,0,2.6H51.369a7.247,7.247,0,0,0,7.239-7.239V28.182A1.3,1.3,0,0,0,57.307,26.882ZM34.372,39.054,39.9,29.483h7.188L41.56,39.054Zm-10.192,0,5.526-9.571h7.188l-5.526,9.571Zm-10.192,0,5.526-9.571H26.7l-5.526,9.571Zm4.836-16.838L9.57,13.328,16.5,11.319a1.29,1.29,0,0,0,.171.2l9.254,8.888-6.934,2.008A1.294,1.294,0,0,0,18.824,22.216ZM36.253,5.848l9.254,8.888-6.934,2.008a1.267,1.267,0,0,0-.171-.2L29.148,7.656l6.934-2.008A1.29,1.29,0,0,0,36.253,5.848Zm-9.79,2.836,9.254,8.888-6.934,2.009a1.267,1.267,0,0,0-.171-.2l-9.254-8.888,6.934-2.008A1.374,1.374,0,0,0,26.463,8.685Zm19.505-5.9A4.6,4.6,0,0,1,47.248,2.6a4.667,4.667,0,0,1,4.465,3.346l1.869,6.45-5.218,1.512a1.322,1.322,0,0,0-.171-.2L38.938,4.821ZM3.184,16.6a4.6,4.6,0,0,1,2.765-2.22l.764-.222a1.323,1.323,0,0,0,.171.2l9.254,8.888L4.655,26.571l-1.869-6.45A4.6,4.6,0,0,1,3.184,16.6ZM5.068,29.483H16.51l-5.526,9.571H5.068Zm39.5,9.571,5.526-9.571h5.917v9.571Zm0,0" transform="translate(0)" fill="none" fill-rule="evenodd"/>
  <path id="Path_259" data-name="Path 259" d="M210.095,352.29a1.3,1.3,0,0,0-.65-1.126l-11.427-6.6a1.3,1.3,0,0,0-1.951,1.126v13.195a1.3,1.3,0,0,0,1.951,1.126l11.427-6.6A1.3,1.3,0,0,0,210.095,352.29Zm-11.427,4.345v-8.689l7.525,4.345Zm0,0" transform="translate(-170.565 -299.597)" fill="none" fill-rule="evenodd"/>
</svg>
