<svg id="spaghetti" xmlns="http://www.w3.org/2000/svg" width="66.595" height="53.233" viewBox="0 0 66.595 53.233">
  <g id="Group_140" data-name="Group 140" transform="translate(14.856 27.447)">
    <ellipse id="Ellipse_31" data-name="Ellipse 31" cx="4.033" cy="4.033" rx="4.033" ry="4.033" fill="#ffab5f"/>
    <ellipse id="Ellipse_32" data-name="Ellipse 32" cx="4.033" cy="4.033" rx="4.033" ry="4.033" transform="translate(27.834)" fill="#ffab5f"/>
  </g>
  <path id="Path_191" data-name="Path 191" d="M226.021,166.551a5.406,5.406,0,0,1,4.31-3.316,1.477,1.477,0,0,1,1.348.548,5.39,5.39,0,0,1-3.538,8.7,1.476,1.476,0,0,1-1.348-.548A5.407,5.407,0,0,1,226.021,166.551Z" transform="translate(-196.279 -148.674)" fill="#78b591"/>
  <path id="Path_192" data-name="Path 192" d="M161.775,194.08a5.409,5.409,0,0,1-3.316-4.31,1.477,1.477,0,0,1,.548-1.348,5.389,5.389,0,0,1,8.7,3.538,1.477,1.477,0,0,1-.548,1.348A5.408,5.408,0,0,1,161.775,194.08Z" transform="translate(-137.838 -169.58)" fill="#b0ce6f"/>
  <path id="Path_193" data-name="Path 193" d="M227.294,199.431a1.052,1.052,0,0,1-.974-1.448l2.45-6.027a1.052,1.052,0,0,1,1.948.792l-2.451,6.027A1.052,1.052,0,0,1,227.294,199.431Z" transform="translate(-196.816 -173.099)" fill="#659b7b"/>
  <path id="Path_194" data-name="Path 194" d="M193.6,211.69a1.047,1.047,0,0,1-.4-.078l-6.026-2.451a1.051,1.051,0,1,1,.792-1.948L194,209.664a1.052,1.052,0,0,1-.4,2.026Z" transform="translate(-162.265 -186.875)" fill="#7e8e51"/>
  <path id="Path_195" data-name="Path 195" d="M184.383,225.441a3.986,3.986,0,0,0-4.579-3.94,3.984,3.984,0,0,0-7.379-.032c-.1-.007-.2-.012-.3-.012a3.984,3.984,0,0,0-3.984,3.984c0,.019,0,.037,0,.056a3.371,3.371,0,0,0,.611,6.686h15.63a3.371,3.371,0,1,0,0-6.742Z" transform="translate(-143.871 -197.2)" fill="#ef645e"/>
  <path id="Path_196" data-name="Path 196" d="M272.585,254.729h-.535a1.051,1.051,0,0,1,0-2.1h.535a1.051,1.051,0,0,1,0,2.1Z" transform="translate(-235.751 -226.448)" fill="#c14616"/>
  <path id="Path_197" data-name="Path 197" d="M169.738,230.248a3.371,3.371,0,0,1,2.76-3.315c0-.019,0-.038,0-.056a3.984,3.984,0,0,1,3.984-3.984c.1,0,.2.005.3.012a3.993,3.993,0,0,1,2.523-2.291,3.981,3.981,0,0,0-6.879.854c-.1-.007-.2-.012-.3-.012a3.984,3.984,0,0,0-3.984,3.984c0,.019,0,.037,0,.056a3.371,3.371,0,0,0,.611,6.686h1.6A3.355,3.355,0,0,1,169.738,230.248Z" transform="translate(-143.871 -197.199)" opacity="0.1"/>
  <path id="Path_198" data-name="Path 198" d="M237.818,237.057h-.535a1.051,1.051,0,1,1,0-2.1h.535a1.051,1.051,0,0,1,0,2.1Z" transform="translate(-205.506 -211.075)" fill="#ffab5f"/>
  <path id="Path_199" data-name="Path 199" d="M225.462,261.8h-.535a1.051,1.051,0,1,1,0-2.1h.535a1.051,1.051,0,1,1,0,2.1Z" transform="translate(-194.757 -232.597)" fill="#c14616"/>
  <g id="Group_141" data-name="Group 141" transform="translate(24.982 29.396)">
    <path id="Path_200" data-name="Path 200" d="M261.38,279.469h-.535a1.051,1.051,0,0,1,0-2.1h.535a1.051,1.051,0,0,1,0,2.1Z" transform="translate(-250.985 -277.366)" fill="#ffab5f"/>
    <path id="Path_201" data-name="Path 201" d="M193.653,279.469h-.535a1.051,1.051,0,0,1,0-2.1h.535a1.051,1.051,0,0,1,0,2.1Z" transform="translate(-192.067 -277.366)" fill="#ffab5f"/>
  </g>
  <path id="Path_202" data-name="Path 202" d="M147.652,313.916a8.412,8.412,0,0,1-8.412,8.412H108.116a8.412,8.412,0,0,1-8.412-8.412h0a8.412,8.412,0,0,1,8.412-8.412H139.24a8.412,8.412,0,0,1,8.412,8.412Z" transform="translate(-86.736 -272.449)" fill="#ffe783"/>
  <path id="Path_203" data-name="Path 203" d="M126.87,338.278a5.608,5.608,0,0,1,0-11.216h31.124a5.608,5.608,0,1,1,0,11.216Z" transform="translate(-105.49 -291.203)" fill="#fff4bd"/>
  <path id="Path_204" data-name="Path 204" d="M145.625,354.229a2.8,2.8,0,0,1,0-5.608h31.124a2.8,2.8,0,1,1,0,5.608Z" transform="translate(-124.245 -309.957)" fill="#f7e07c"/>
  <path id="Path_205" data-name="Path 205" d="M216.8,346.815a7.01,7.01,0,0,1-7.01,7.01H199.414a7.01,7.01,0,0,1-7.01-7.01h0a7.01,7.01,0,0,1,7.01-7.01h10.375a7.01,7.01,0,0,1,7.01,7.01Z" transform="translate(-167.378 -302.288)" fill="#ffe783"/>
  <path id="Path_206" data-name="Path 206" d="M218.169,369.776a4.206,4.206,0,0,1,0-8.412h10.375a4.206,4.206,0,1,1,0,8.412Z" transform="translate(-186.133 -321.043)" fill="#fff4bd"/>
  <path id="Path_207" data-name="Path 207" d="M236.923,385.727a1.4,1.4,0,0,1,0-2.8H247.3a1.4,1.4,0,1,1,0,2.8Z" transform="translate(-204.887 -339.798)" fill="#ffe783"/>
  <path id="Path_208" data-name="Path 208" d="M68.05,312.515a7.01,7.01,0,0,1-7.01,7.01H50.665a7.01,7.01,0,0,1-7.01-7.01h0a7.01,7.01,0,0,1,7.01-7.01H61.04a7.01,7.01,0,0,1,7.01,7.01Z" transform="translate(-37.977 -272.45)" fill="#f7e07c"/>
  <path id="Path_209" data-name="Path 209" d="M69.419,335.476a4.206,4.206,0,1,1,0-8.412H79.794a4.206,4.206,0,1,1,0,8.412Z" transform="translate(-56.731 -291.204)" fill="#fff4bd"/>
  <path id="Path_210" data-name="Path 210" d="M88.173,351.426a1.4,1.4,0,0,1,0-2.8H98.548a1.4,1.4,0,1,1,0,2.8Z" transform="translate(-75.485 -309.958)" fill="#ffe783"/>
  <path id="Path_211" data-name="Path 211" d="M35.2,142.556H31.571a5.695,5.695,0,1,1,0-11.39h3.457a1.051,1.051,0,1,1,0,2.1H31.571a3.592,3.592,0,1,0,0,7.184H35.2a1.051,1.051,0,1,1,0,2.1Z" transform="translate(-22.51 -120.786)" fill="#f2d8a0"/>
  <path id="Path_212" data-name="Path 212" d="M127.777,63.846h-4.056a1.051,1.051,0,1,1,0-2.1h4.056a4.138,4.138,0,0,0,0-8.277H123.2a1.051,1.051,0,1,1,0-2.1h4.579a6.241,6.241,0,1,1,0,12.482Z" transform="translate(-106.259 -51.364)" fill="#fce9c3"/>
  <path id="Path_213" data-name="Path 213" d="M336.977,129.039h-8.349a3.156,3.156,0,1,1,0-6.312h2.9a1.051,1.051,0,0,0,0-2.1h-2.9a5.259,5.259,0,1,0,0,10.518h8.349a2.477,2.477,0,0,1,2.474,2.474V135.9a1.051,1.051,0,1,0,2.1,0v-2.289A4.582,4.582,0,0,0,336.977,129.039Z" transform="translate(-281.309 -111.616)" fill="#f2d8a0"/>
  <path id="Path_214" data-name="Path 214" d="M71.431,418.529a8.153,8.153,0,0,0,7.7,5.477h32.613a8.153,8.153,0,0,0,7.7-5.477Z" transform="translate(-62.14 -370.773)" fill="#b3b3b3"/>
  <path id="Path_215" data-name="Path 215" d="M77.109,418.529H71.431a8.153,8.153,0,0,0,7.7,5.477h5.678A8.152,8.152,0,0,1,77.109,418.529Z" transform="translate(-62.14 -370.773)" opacity="0.1"/>
  <path id="Path_216" data-name="Path 216" d="M66.595,397.693a2.225,2.225,0,0,1-2.225,2.225H2.225A2.225,2.225,0,0,1,0,397.693H0a2.225,2.225,0,0,1,2.225-2.225H64.369a2.225,2.225,0,0,1,2.225,2.225Z" transform="translate(0 -350.711)" fill="#ccc"/>
  <path id="Path_217" data-name="Path 217" d="M5.678,397.693A2.225,2.225,0,0,1,7.9,395.468H2.225a2.225,2.225,0,0,0,0,4.45H7.9A2.225,2.225,0,0,1,5.678,397.693Z" transform="translate(0 -350.711)" opacity="0.1"/>
</svg>
