<svg xmlns="http://www.w3.org/2000/svg" width="64.628" height="64.237" viewBox="0 0 64.628 64.237">
  <g id="travelling_1_" data-name="travelling (1)" transform="translate(-25.984 -0.984)">
    <g id="Group_142" data-name="Group 142" transform="translate(25.984 0.984)">
      <path id="Path_232" data-name="Path 232" d="M136.592,109.647a27.5,27.5,0,0,1-54.922-2.055L98.263,84.5l12.56-4.3A27.308,27.308,0,0,1,120,82.368a27.532,27.532,0,0,1,16.656,25.294q0,1-.067,1.985Z" transform="translate(-72.031 -70.945)" fill="#b5d3ff" fill-rule="evenodd"/>
      <path id="Path_233" data-name="Path 233" d="M365,98.172a27.511,27.511,0,0,1,14.053,24.008q0,1-.067,1.985c-.628,4.193-7.873,3.791-8.256.137-.353-3.364-3.454-3.449-4.88-3.591-3.513-.357-5.106-2.87-.62-8.765,3.736-4.91-9.964-9.895-2.834-15.061A27.711,27.711,0,0,1,365,98.172Z" transform="translate(-314.429 -85.464)" fill="#80d261" fill-rule="evenodd"/>
      <path id="Path_234" data-name="Path 234" d="M274.692,149.931l1.723,1.531a2.148,2.148,0,0,1,.178,3.018l-4.241,4.776-3.238-2.375.2-4.115,2.362-2.658A2.135,2.135,0,0,1,274.692,149.931Z" transform="translate(-235.095 -131.141)" fill="#838383" fill-rule="evenodd"/>
      <path id="Path_235" data-name="Path 235" d="M206.1,145.747l3.034,6.49,1.326,2.844a4.943,4.943,0,0,1-.512,5.118l-1.53,1.721c-1.155,1.3-2.113.914-3.042-.494l-8.931-13.218,1.255-5.958,6.336-.926Z" transform="translate(-171.881 -124.122)" fill="#acacac" fill-rule="evenodd"/>
      <path id="Path_236" data-name="Path 236" d="M108.084,240.6l3.287,6.616a3.8,3.8,0,0,1-.4,4l-.839.944c-.9,1.018-1.653.717-2.377-.387l-5.24-6.122,1.24-3.579Z" transform="translate(-90.163 -210.486)" fill="#acacac" fill-rule="evenodd"/>
      <path id="Path_237" data-name="Path 237" d="M12.819,180.977l6.844,2.409-.03,4.691-4.275,1.368-6.636-4.338c-1.177-.591-1.567-1.3-.661-2.316l.839-.948a3.8,3.8,0,0,1,3.918-.866Z" transform="translate(-7.563 -158.43)" fill="#acacac" fill-rule="evenodd"/>
      <path id="Path_238" data-name="Path 238" d="M193.657,379.535c2.447-4.07,9.986-5,15.274.71a27.447,27.447,0,0,1-39.027,7.289c-.249-7.542,5.838-9.5,10.744-5.442C182.761,383.836,190.57,384.679,193.657,379.535Z" transform="translate(-148.782 -328.467)" fill="#80d261" fill-rule="evenodd"/>
      <path id="Path_239" data-name="Path 239" d="M104.3,9.068a2.1,2.1,0,0,1,1.411.535l1.723,1.531a2.144,2.144,0,0,1,.178,3.018l-2.358,2.658h-5.028l-1.768-2.253L102.7,9.782a2.128,2.128,0,0,1,1.593-.714Z" transform="translate(-86.635 -9.068)" fill="#838383" fill-rule="evenodd"/>
      <path id="Path_240" data-name="Path 240" d="M30.474,42.962l6.8,2.253L41.9,46.746,41.08,52.73,35.963,55.1,21.8,47.775c-1.508-.758-2.005-1.661-.847-2.966l1.53-1.721A4.939,4.939,0,0,1,27.5,41.977Z" transform="translate(-18.652 -37.472)" fill="#acacac" fill-rule="evenodd"/>
      <path id="Path_241" data-name="Path 241" d="M83.589,15.117c2.277-.676,5.288-1.126,6.722.163,1.448,1.271,1.352,4.315.947,6.657a7.5,7.5,0,0,1-.264,1.07,12.2,12.2,0,0,1-3.576,5.181l-3.056,2.769-7.591,6.884L64.542,48.911l-.52.491a4.109,4.109,0,0,1-2.18,1c-2.317.238-3.933-2.271-2.3-4.984l.46-.647,9.515-13.385,5.935-8.356,2.392-3.36a11.277,11.277,0,0,1,5.749-4.553Z" transform="translate(-52.203 -13.756)" fill="#ececec" fill-rule="evenodd"/>
      <path id="Path_242" data-name="Path 242" d="M81.9,29.173l-7.591,6.884L62.083,47.126l-.52.491a4.121,4.121,0,0,1-2.18,1,3.1,3.1,0,0,1-.412.015,2.648,2.648,0,0,0,2.952,2.5,4.109,4.109,0,0,0,2.18-1l.52-.491L76.853,38.574l7.591-6.884L87.5,28.921a12.2,12.2,0,0,0,3.576-5.181,7.492,7.492,0,0,0,.264-1.07c.4-2.342.5-5.386-.947-6.657a3.191,3.191,0,0,0-1.556-.714,12.665,12.665,0,0,1-.037,4.858,7.463,7.463,0,0,1-.264,1.067A12.2,12.2,0,0,1,84.96,26.4Z" transform="translate(-52.284 -14.488)" fill="#cecece" fill-rule="evenodd"/>
      <path id="Path_243" data-name="Path 243" d="M207.241,194.521,198.306,181.3l-1.857,1.684L205.38,196.2c.928,1.409,1.887,1.8,3.042.494l.836-.94c-.724.223-1.378-.264-2.016-1.238Z" transform="translate(-171.881 -158.901)" fill="#838383" fill-rule="evenodd"/>
      <path id="Path_244" data-name="Path 244" d="M290.447,157.936l-3.658,4.122.94,2.011,4.241-4.776a2.147,2.147,0,0,0-.178-3.018l-1.515-1.349v0A2.144,2.144,0,0,1,290.447,157.936Z" transform="translate(-250.471 -135.954)" fill="#595959" fill-rule="evenodd"/>
      <path id="Path_245" data-name="Path 245" d="M134.169,22.871l2.151.727,2.358-2.658a2.144,2.144,0,0,0-.178-3.018l-1.181-1.052c.873.784.537,1.99-.257,2.857Z" transform="translate(-117.702 -15.855)" fill="#595959" fill-rule="evenodd"/>
      <path id="Path_246" data-name="Path 246" d="M37.322,68.21,23.158,60.884c-1.055-.528-1.615-1.13-1.459-1.892l-.75.844c-1.159,1.3-.661,2.208.847,2.966l14.168,7.326Z" transform="translate(-18.652 -52.499)" fill="#838383" fill-rule="evenodd"/>
      <path id="Path_247" data-name="Path 247" d="M109.346,274.443l-5.24-6.122-1.593,1.446,5.24,6.122c.724,1.1,1.474,1.4,2.377.387l.758-.851C110.338,275.569,109.836,275.186,109.346,274.443Z" transform="translate(-90.163 -234.601)" fill="#838383" fill-rule="evenodd"/>
      <path id="Path_248" data-name="Path 248" d="M16.611,195.487l-6.633-4.338c-.795-.4-1.229-.851-1.151-1.416l-.765.862c-.906,1.015-.516,1.725.661,2.316l6.636,4.338Z" transform="translate(-7.563 -166.234)" fill="#838383" fill-rule="evenodd"/>
      <path id="Path_249" data-name="Path 249" d="M401.239,125.934a27.511,27.511,0,0,0-14.053-24.008q-.674-.379-1.378-.725c4.5,5.955,7.283,14.214,7.283,23.343q0,1.868-.152,3.676c.576,3.5,7.617,3.829,8.233-.3Q401.238,126.937,401.239,125.934Z" transform="translate(-336.611 -89.218)" fill="#4fc122" fill-rule="evenodd"/>
      <path id="Path_250" data-name="Path 250" d="M436.791,306.615c-.617,4.13-7.658,3.8-8.233.3a41.7,41.7,0,0,1-1.8,9.188,12.492,12.492,0,0,1,5.626,3.587A27.347,27.347,0,0,0,436.791,306.615Z" transform="translate(-372.23 -267.914)" fill="#6bd9e7" fill-rule="evenodd"/>
      <path id="Path_251" data-name="Path 251" d="M363.563,379.573a32.32,32.32,0,0,1-9.448,14.883,27.573,27.573,0,0,0,15.074-11.3A12.491,12.491,0,0,0,363.563,379.573Z" transform="translate(-309.04 -331.382)" fill="#4fc122" fill-rule="evenodd"/>
    </g>
  </g>
</svg>
