<svg xmlns="http://www.w3.org/2000/svg" width="95.007" height="157.113" viewBox="0 0 95.007 157.113">
  <g id="Group_209" data-name="Group 209" transform="translate(-625.907 -309.092)">
    <g id="Group_208" data-name="Group 208">
      <path id="Path_354" data-name="Path 354" d="M-3414.392,18108.162s3.75-18.988-.9-30.861-10.255-18.314-16.272-23.205-12.44-6.225-20.8-6.842-12.359-2.4-18.269,0-7.65,6.43-9.592,11.066.759,12.176.759,12.176l58.942,31.727Z" transform="translate(4131 -17736.943)" fill="#ff8341"/>
      <path id="Path_348" data-name="Path 348" d="M777.956,19113.2l2.32,35.932-18.029,24.76a18,18,0,0,1-14.637,4.34c-8.833-1.395-6.9-8.1-6.9-8.1l4.048-32.641a59.384,59.384,0,0,0,17.491-8.539C770.547,19122.877,777.956,19113.2,777.956,19113.2Z" transform="translate(-73.061 -18712.75)" fill="#f6a593" stroke="#f6a593" stroke-width="1"/>
      <path id="Path_350" data-name="Path 350" d="M857.283,19022.355s9.025.742,8.291,10.984-10.141,8.709-10.141,8.709Z" transform="translate(-144.702 -18656.174)" fill="#f6a593"/>
      <path id="Path_353" data-name="Path 353" d="M-3459.563,18156.965l-1.821,14.879a79,79,0,0,0,19.149-12.984,155.079,155.079,0,0,0,16.863-19.529l-.424-7.777Z" transform="translate(4131 -17734)" fill="#f5937e"/>
      <path id="Path_349" data-name="Path 349" d="M32.752-7.08c18.318-.675,33.49,22.632,33.49,47.273S54.122,75.881,41.815,85.677c-7.659,5.348-14.369,8.62-18.547,7.616S12.46,90.627,6.179,78.328s-7.425-26.353-7.425-38.4c0-12.518,2.676-32.636,9.1-40.759C13.94-8.523,14.434-6.405,32.752-7.08Z" transform="translate(646.585 331)" fill="#f6a593"/>
      <path id="Path_355" data-name="Path 355" d="M0,0H29.146s.1,10.457-14.827,10.462S0,0,0,0Z" transform="matrix(-0.966, 0.259, -0.259, -0.966, 691.902, 398.508)" fill="#fff"/>
      <path id="Path_362" data-name="Path 362" d="M3.924-23.289c.723.018,2.555,6.222,2.412,8.438s-1.418,3.168-3.168,3.168A3.168,3.168,0,0,1,0-14.851c.051-2.571,1.605-3.287,2.715-5.563C3.406-21.837,3.591-23.3,3.924-23.289Z" transform="matrix(0.996, 0.087, -0.087, 0.996, 656.84, 386.678)" fill="#3382f7"/>
      <path id="Path_363" data-name="Path 363" d="M4.526-23.289c.375.009.207,1.876.814,3.985s1.968,4.638,1.968,5.748A3.654,3.654,0,0,1,3.654-9.9,3.654,3.654,0,0,1,0-13.556a18.263,18.263,0,0,1,1.643-6.785A6.142,6.142,0,0,1,4.526-23.289Z" transform="matrix(0.996, 0.087, -0.087, 0.996, 632.115, 420.59)" fill="#3382f7"/>
      <path id="Path_365" data-name="Path 365" d="M5.155-23.289c.428.011.236,2.136.927,4.538S8.324-13.468,8.324-12.2A4.162,4.162,0,0,1,4.162-8.042,4.162,4.162,0,0,1,0-12.2a20.8,20.8,0,0,1,1.871-7.728C2.831-21.89,4.726-23.3,5.155-23.289Z" transform="translate(626.313 453.113) rotate(-1)" fill="#3382f7"/>
      <path id="Path_364" data-name="Path 364" d="M4.76-23.289c.395.01,2,2.377,2.64,4.595A13.866,13.866,0,0,1,7.88-13.2,4.143,4.143,0,0,1,3.843-9.21,3.843,3.843,0,0,1,0-13.053c.163-2.579,3.03-4.8,3.716-6.138C4.6-21,4.364-23.3,4.76-23.289Z" transform="matrix(0.996, 0.087, -0.087, 0.996, 639.974, 439.23)" fill="#3382f7"/>
    </g>
  </g>
</svg>
