<svg xmlns="http://www.w3.org/2000/svg" width="159.495" height="67.206" viewBox="0 0 159.495 67.206">
  <path id="Path_282" data-name="Path 282" d="M4,.828A3.661,3.661,0,0,1,2.242-.9a4.947,4.947,0,0,1-.552-2.38,3.755,3.755,0,0,1,.794-2.208A2.98,2.98,0,0,1,4.692-6.624h6.762l.621-.621a3.379,3.379,0,0,0,.172-.932q.1-.862.207-2.07t.207-2.45q.1-1.242.1-2V-26.151q0-.621.1-2.622T13.11-33.4q.138-2.622.311-5.624t.311-5.624l.241-4.589q.1-1.966.172-2.587a4.218,4.218,0,0,0-.311-1.449,9.6,9.6,0,0,0-.793-1.621q-.483-.793-.931-1.449t-.656-.931a2.886,2.886,0,0,0-1.828-.793Q8.349-58.236,7-58.34a14.808,14.808,0,0,1-2.45-.38,1.6,1.6,0,0,1-1.311-1.242,4.423,4.423,0,0,1,.311-3.415q.794-1.208,3.14-1.346H18.906a8.257,8.257,0,0,1,1.9.242,2.77,2.77,0,0,1,.863.449q.345.276.828.621a6,6,0,0,0,1.794.69q2,.552,3.415.828a15.623,15.623,0,0,1,2.588.725A9.4,9.4,0,0,1,32.6-59.858a15.087,15.087,0,0,1,2.518,2.588,8.959,8.959,0,0,1,1.1,2.07,13,13,0,0,1,.621,2.243q.207,1.138.38,2.311a12.913,12.913,0,0,0,.518,2.208,1.42,1.42,0,0,0,.207.517q.207.38.449.828t.448.828q.207.379.276.518a19.1,19.1,0,0,1,1.38,5.416,52.423,52.423,0,0,1,.379,7.038,77.046,77.046,0,0,1-.483,7.8,67.417,67.417,0,0,1-1.311,7.763,51.824,51.824,0,0,1-2.035,6.8,19.136,19.136,0,0,1-2.691,5,13.323,13.323,0,0,1-1.277,1.552q-.863.932-1.69,1.76T29.877-1.173a2.762,2.762,0,0,1-.828.621L20.217,1.587A7.213,7.213,0,0,0,16.284.655a31.72,31.72,0,0,0-4.14.483q-2.07.38-4.14.552A7.078,7.078,0,0,1,4,.828ZM20.217-7.935a7.321,7.321,0,0,0,6,.173A11.029,11.029,0,0,0,30.7-11.7a25.624,25.624,0,0,0,3.105-6.521,56.973,56.973,0,0,0,1.932-7.625,52.909,52.909,0,0,0,.828-7.176,30.435,30.435,0,0,0-.138-5.278q-.552-3.726-1.207-7.555a21.71,21.71,0,0,0-2.277-6.8A11.033,11.033,0,0,0,28.324-57.2q-3-1.587-8.107-.759a2.734,2.734,0,0,0-2,1.242,6.585,6.585,0,0,0-.759,2.174,17.481,17.481,0,0,0-.241,2.484,6.571,6.571,0,0,1-.379,2.173V-16.7l.69,6.762a.888.888,0,0,0,.345.656,4.048,4.048,0,0,0,.794.552l.9.483A4.813,4.813,0,0,0,20.217-7.935ZM45.057-.414a1.912,1.912,0,0,1-1-1.794q.1-1.035.242-2.346a1.709,1.709,0,0,1,1-1.38,7.142,7.142,0,0,1,2.1-.586,23.72,23.72,0,0,1,2.691-.207,20.886,20.886,0,0,0,2.76-.242,8.263,8.263,0,0,0,2.312-.69A2.761,2.761,0,0,0,56.58-9.246q.069-.69.173-2.518t.207-3.9q.1-2.07.172-3.9t.069-2.588q0-1.242.035-3.864t.035-5.9v-13.8q0-3.277-.035-5.865T57.2-55.407a4.732,4.732,0,0,0-.483-.966q-.207-.345-.449-.69t-.448-.345H47.679a2.353,2.353,0,0,1-2.035-.9,3.763,3.763,0,0,1-.724-2.035,4.565,4.565,0,0,1,.448-2.243,3.121,3.121,0,0,1,1.622-1.587,63.643,63.643,0,0,0,6.624-.069q3.312-.207,6.624-.38t6.624-.138a42.957,42.957,0,0,1,6.624.587,5.717,5.717,0,0,1-.449,3.967,4.451,4.451,0,0,1-2.449,1.863,10.769,10.769,0,0,1-3.692.449q-2.1-.069-4.243-.207l-1.38,1.38-.035,1.553Q61.2-53.613,61.2-51.44t.035,4.485q.034,2.311.035,3.829,0,.828.069,2.45t.1,3.622q.034,2,.138,4.209t.138,4.209q.034,2,.1,3.554t.069,2.242q.069.345.173,1.345t.207,2.208q.1,1.208.207,2.311t.173,1.587q0,.138.1,1.173t.311,2.277a15.011,15.011,0,0,0,.552,2.277q.345,1.035.966,1.1l8.9,2A2.254,2.254,0,0,1,75.176-4.9a5.857,5.857,0,0,1,.1,2.76,7.319,7.319,0,0,1-1,2.587q-.725,1.138-1.484,1.139H57.2A8.7,8.7,0,0,0,53.82,1q-1.38.1-2.656.242a10.649,10.649,0,0,1-2.691-.069A8.629,8.629,0,0,1,45.057-.414ZM82.041-.621a1.846,1.846,0,0,1,.1-1.691A4.027,4.027,0,0,1,83.49-3.485a14.544,14.544,0,0,1,2.07-.966,16.22,16.22,0,0,0,2.208-1.035A7.282,7.282,0,0,0,89.562-6.9a3.63,3.63,0,0,0,.9-2.139V-33.051q0-.276-.1-1.346t-.207-2.243q-.1-1.173-.207-2.208t-.1-1.311v-7.866a3.048,3.048,0,0,0-.207-.552q-.207-.483-.483-1.035t-.483-1.035a2.247,2.247,0,0,1-.207-.621,4.6,4.6,0,0,1-.138-.759q-.069-.552-.173-1.173t-.173-1.173a7.346,7.346,0,0,1-.069-.759q-1.587-.276-3.381-.655a10.063,10.063,0,0,1-3.243-1.277A2.557,2.557,0,0,1,80.42-58.2a8.469,8.469,0,0,1-.38-1.415,2.985,2.985,0,0,1,1.552-3.347,13.6,13.6,0,0,1,5.279-1.656,41.728,41.728,0,0,1,7.348-.276,67.668,67.668,0,0,1,7.728.759,49.939,49.939,0,0,1,6.451,1.415A7.863,7.863,0,0,1,111.918-61a15.8,15.8,0,0,1,2.622,4q.966,2.139,1.932,4.416.069,2,.242,4.071a35.087,35.087,0,0,1,.1,4.106,18.429,18.429,0,0,1-.552,3.933,9.993,9.993,0,0,1-1.725,3.553q-.207.207-.9,1.035t-1.449,1.828l-1.415,1.863q-.655.862-.793,1.069a4.089,4.089,0,0,0-.69,2.795,15.78,15.78,0,0,0,.69,3.381q.552,1.76,1.173,3.381a12.15,12.15,0,0,1,.759,2.726q.069.69.173,2.381t.173,3.553q.069,1.863.138,3.519t.069,2.277a4.2,4.2,0,0,0,1.483,2.484,3.15,3.15,0,0,0,1.9.379,16.005,16.005,0,0,0,2.174-.379,3.989,3.989,0,0,1,2.311.138q1.173.483.9,1.414a3.362,3.362,0,0,1-1.415,1.725A7.528,7.528,0,0,1,116.99-.207a5.183,5.183,0,0,1-3.312-.414,6.829,6.829,0,0,1-2.864-2.864A14.461,14.461,0,0,1,109.3-9.729a8.62,8.62,0,0,1,.138-1.966q.207-1.414.414-3t.276-3.1a7.924,7.924,0,0,0-.138-2.277,21.142,21.142,0,0,0-2.415-4.9,31.5,31.5,0,0,0-3.45-4.209,6.9,6.9,0,0,0-2.622-1.552,10.708,10.708,0,0,0-3.381-.621,6.955,6.955,0,0,0-3.174.655A3.542,3.542,0,0,0,93.012-28.5q0,.621-.035,1.863t-.035,2.829v6.762q0,1.587.035,2.863t.035,1.9a19.138,19.138,0,0,0,.483,4.106A6.659,6.659,0,0,0,94.771-5.52a6.3,6.3,0,0,0,2.346,1.691,28.142,28.142,0,0,0,3.691,1.276V.069H82.662q-.138,0-.345-.276A3.119,3.119,0,0,1,82.041-.621ZM97.566-36.915a4.87,4.87,0,0,0,.483.345,9.706,9.706,0,0,1,.828.621q.414.345.794.621a4.733,4.733,0,0,0,.518.345q1.035.621,2.932-.31a18.21,18.21,0,0,0,3.76-2.519,27.289,27.289,0,0,0,3.346-3.381,7.3,7.3,0,0,0,1.691-2.9q.069-.483.1-1.587t.035-2.346q0-1.242-.035-2.346a13.517,13.517,0,0,0-.1-1.518,4.278,4.278,0,0,0-1.621-2.726,8.929,8.929,0,0,0-3.209-1.587,14.9,14.9,0,0,0-4-.518,17.492,17.492,0,0,0-3.933.414A8.8,8.8,0,0,0,96.186-55.1a2.277,2.277,0,0,0-1.173,1.9v14.9l.483.242.759.38a8.842,8.842,0,0,1,.794.449Q97.428-36.984,97.566-36.915ZM151.662.9A48.775,48.775,0,0,0,143.244.1q-4.278-.034-8.073.1a4.988,4.988,0,0,1-2.725.276,2.5,2.5,0,0,1-1.484-1,2.789,2.789,0,0,1-.448-1.691,5.221,5.221,0,0,1,.414-1.863A4.228,4.228,0,0,1,132-5.589a2.3,2.3,0,0,1,1.587-.621,3.961,3.961,0,0,1,.828.173,4.432,4.432,0,0,0,.759.172q.345,0,1.173.035t1.794.035q.966,0,1.794-.035t1.173-.035q.621-.207,1.1-1.725a31.424,31.424,0,0,0,.863-3.45,32.282,32.282,0,0,0,.518-3.691,11.075,11.075,0,0,0,0-2.519,4.748,4.748,0,0,0-.138-.725q-.138-.586-.345-1.277t-.345-1.276a4.748,4.748,0,0,1-.138-.725,7.373,7.373,0,0,1-.173-1.656,3.365,3.365,0,0,1,.173-.932q.138-.38.276-.863a11.768,11.768,0,0,0,.276-1.587v-4.968a4.361,4.361,0,0,0-.1-.724q-.1-.518-.207-1.1t-.173-1.1q-.069-.518-.069-.656,0-.414-.035-1.173t-.035-1.552q0-.793.035-1.449t.035-.793a1.9,1.9,0,0,1,.138-.518,7.555,7.555,0,0,1,.345-.793q.207-.414.345-.759a1.922,1.922,0,0,0,.138-.414,3.862,3.862,0,0,0-.035-2.1,13.009,13.009,0,0,1-.38-1.967q0-.552-.1-1.828t-.207-2.691q-.1-1.415-.173-2.691t-.069-1.759a3.3,3.3,0,0,0-.656-1.76,5.594,5.594,0,0,0-1.277-1.277,4.323,4.323,0,0,0-1.518-.518,3.8,3.8,0,0,0-1.518-.034,4.169,4.169,0,0,0-2.1,1.1,3.7,3.7,0,0,0-.793,1.552,8.461,8.461,0,0,0-.207,1.966,8.068,8.068,0,0,1-.414,2.415q-.069.138-.276.483t-.483.759q-.276.414-.518.794t-.311.518a6.266,6.266,0,0,0-.242.69,6.267,6.267,0,0,1-.242.69q0,.552.035,1.932t.035,2.9q0,1.518-.035,2.9t-.035,1.863q-.138,2.691-1.1,3.588a1.529,1.529,0,0,1-1.966.311,4.115,4.115,0,0,1-1.587-2.415,7.886,7.886,0,0,1,.172-4.52l.966-20.01a3.1,3.1,0,0,1,.552-1.346,6.857,6.857,0,0,1,1.139-1.311,6.126,6.126,0,0,1,1.449-.966,3.346,3.346,0,0,1,1.415-.38q1.794-.069,3.484.035l3.381.207q1.69.1,3.347.1a17.215,17.215,0,0,0,3.381-.345,1.715,1.715,0,0,1,.9-.034,4.621,4.621,0,0,1,.793.276q.38.172.794.38a4.533,4.533,0,0,0,1.035.345,2.766,2.766,0,0,0,2-.173,10.354,10.354,0,0,1,2-.794q0-.069.207-.069t.207.069a23.2,23.2,0,0,1,2.346,1,7.31,7.31,0,0,1,1.794,1.242,5.326,5.326,0,0,1,1.208,1.759,9.731,9.731,0,0,1,.656,2.484q.069.966.138,3.243t.173,4.83q.1,2.553.172,4.8t.069,3.14v6.555a2.285,2.285,0,0,1-.448,1.173,4.62,4.62,0,0,1-.966,1.1,1.3,1.3,0,0,1-1,.345q-.483-.069-.621-1.1,0-.207-.069-1.1t-.173-1.9q-.1-1-.173-1.9t-.069-1.1a8.8,8.8,0,0,0-.173-1.1q-.173-.9-.31-1.9t-.311-1.9a8.8,8.8,0,0,1-.172-1.1,17.174,17.174,0,0,1-.1-2.346,18.365,18.365,0,0,0-.034-1.967,7.192,7.192,0,0,0-.38-1.828,8.611,8.611,0,0,0-1.07-2,4.606,4.606,0,0,0-1.932-1.518,6.3,6.3,0,0,0-2.587-.552,4.91,4.91,0,0,0-2.449.621,3.009,3.009,0,0,0-1.449,2q0,.552.035,1.932t.035,2.9q0,1.518-.035,2.863t-.035,1.828q0,.345-.1,1.691t-.207,2.864q-.1,1.518-.207,2.863t-.1,1.622v8.073a5.212,5.212,0,0,1-.173,1,3.461,3.461,0,0,1-.311.931v15.594a4.382,4.382,0,0,0,.1.793A5.9,5.9,0,0,0,146-8.453a6.31,6.31,0,0,0,.483.966,1.708,1.708,0,0,0,.69.655,7.548,7.548,0,0,0,.759.483q.483.276.966.517t.863.449a1.825,1.825,0,0,0,.449.207h4.416a3.707,3.707,0,0,1,1.1.38,6.384,6.384,0,0,1,1.173.759,13.511,13.511,0,0,1,1.035.931,6.061,6.061,0,0,1,.759.9.853.853,0,0,1,0,.932,5.56,5.56,0,0,1-.69,1,5.8,5.8,0,0,1-.863.828L156.7.9a3.188,3.188,0,0,1-1.242.517,3.961,3.961,0,0,1-1.277,0,11.421,11.421,0,0,1-1.277-.276A7.891,7.891,0,0,0,151.662.9Z" transform="translate(-1.689 65.491)" fill="#fff"/>
</svg>
