<svg id="electric-guitar" xmlns="http://www.w3.org/2000/svg" width="66.3" height="66.594" viewBox="0 0 66.3 66.594">
  <path id="Path_83" data-name="Path 83" d="M405.133,35.9l-.2-2.675a1.845,1.845,0,0,0-2.429-1.611l-10.376,3.5a3.8,3.8,0,0,0-2.536,3l-.262,1.645.069.344,3.446,3.491.246-.074,2.956-.51a3.516,3.516,0,0,0,2.587-1.973,4.666,4.666,0,0,1,4.412-2.956A2.041,2.041,0,0,0,405.133,35.9Z" transform="translate(-338.838 -27.418)" fill="#dbedff"/>
  <path id="Path_84" data-name="Path 84" d="M391.393,40.984a4.111,4.111,0,0,1,2.746-3.249L405,34.074l-.063-.846a1.845,1.845,0,0,0-2.429-1.611l-10.376,3.5a3.8,3.8,0,0,0-2.536,3l-.262,1.645.069.344,1.838,1.862Z" transform="translate(-338.837 -27.419)" fill="#b5dcff"/>
  <path id="Path_85" data-name="Path 85" d="M26.719,198.88l2.754-3.034-.089-.555c-3.388-3.006-2.079-6-.478-7.914a1.61,1.61,0,0,0-1.2-2.635c-4.732-.155-6.291,3.144-10.841,11.636-1.8,3.364-5.283,5.522-9.151,6.9a9.862,9.862,0,0,0-3.694,16.264l2.436,2.436,2.436,2.436a9.825,9.825,0,0,0,12.38,1.26l.859-3.133.861-6.184-6.483-9.024,5.959-3.863Z" transform="translate(-1.132 -160.708)" fill="#ff636e"/>
  <path id="Path_86" data-name="Path 86" d="M10.2,206.12c4.045-1.445,7.685-3.7,9.57-7.219,4.085-7.624,5.865-11.245,9.418-12.014a1.617,1.617,0,0,0-1.482-2.146c-4.732-.155-6.291,3.144-10.841,11.636-1.8,3.364-5.283,5.522-9.151,6.9A9.862,9.862,0,0,0,3.981,219.5,10.342,10.342,0,0,1,10.2,206.12Z" transform="translate(-1.135 -160.707)" fill="#ff4654"/>
  <path id="Path_87" data-name="Path 87" d="M128.774,292.758a7.353,7.353,0,0,1-7.52-2.1l-.119-.731-3.257-3.03h-.385l-3.174,3.174a10.12,10.12,0,0,1-3.723,2.364l-1.687.608a5.124,5.124,0,0,0-3.353,4.1l.121.778,3.9,5.87v.675a10.083,10.083,0,0,1,1.523,5.191,13.085,13.085,0,0,0,1.011,4.888A9.833,9.833,0,0,0,116,309.588c1.382-3.865,3.54-7.341,6.9-9.142,1.344-.72,2.558-1.365,3.648-1.96a6.526,6.526,0,0,0,3.353-4.718c0-.018.005-.037.008-.055A.877.877,0,0,0,128.774,292.758Z" transform="translate(-91.974 -249.583)" fill="#dbedff"/>
  <path id="Path_88" data-name="Path 88" d="M111.385,297.013c4.139-2.231,7.555-7.881,7.555-7.881l.648-.643-1.711-1.591h-.385l-3.174,3.174a10.12,10.12,0,0,1-3.723,2.364l-1.687.608a5.124,5.124,0,0,0-3.353,4.1l.121.778,3.9,5.87v.675a10.083,10.083,0,0,1,1.523,5.191,13.085,13.085,0,0,0,1.011,4.888,9.766,9.766,0,0,0,2.811-2.8C114.906,305.5,108.06,298.806,111.385,297.013Z" transform="translate(-91.974 -249.582)" fill="#b5dcff"/>
  <g id="Group_126" data-name="Group 126" transform="translate(22.828 42.764)">
    <path id="Path_89" data-name="Path 89" d="M179.025,332.166a1,1,0,0,1-.707-.293l-1.382-1.382a1,1,0,1,1,1.415-1.415l1.382,1.382a1,1,0,0,1-.707,1.708Z" transform="translate(-176.643 -328.784)" fill="#8896e0"/>
  </g>
  <g id="Group_127" data-name="Group 127" transform="translate(19.118 45.723)">
    <path id="Path_90" data-name="Path 90" d="M150.877,355.293a1,1,0,0,1-.707-.293l-1.757-1.757a1,1,0,0,1,1.415-1.415l1.757,1.757a1,1,0,0,1-.707,1.708Z" transform="translate(-148.119 -351.535)" fill="#8896e0"/>
  </g>
  <path id="Path_91" data-name="Path 91" d="M90.982,370.719l-5.11-5.111a.557.557,0,0,0-.787,0l-2.231,2.231a.557.557,0,0,0,0,.787l5.11,5.11a.557.557,0,0,0,.787,0l2.231-2.231A.556.556,0,0,0,90.982,370.719Z" transform="translate(-72.082 -317.913)" fill="#ffd500"/>
  <path id="Path_92" data-name="Path 92" d="M84.877,370.051l2.476-2.476a.615.615,0,0,1,.315-.169l-1.8-1.8a.557.557,0,0,0-.787,0l-2.231,2.231a.557.557,0,0,0,0,.787l1.846,1.846A.615.615,0,0,1,84.877,370.051Z" transform="translate(-72.081 -317.913)" fill="#fbc700"/>
  <path id="Path_93" data-name="Path 93" d="M221.212,94.9l-24.973,24.973a.557.557,0,0,0,0,.787l2.974,2.974a.557.557,0,0,0,.787,0l24.973-24.973Z" transform="translate(-170.72 -82.553)" fill="#8896e0"/>
  <path id="Path_94" data-name="Path 94" d="M221.212,94.9l-24.973,24.973a.557.557,0,0,0,0,.787l1.447,1.447L223.16,96.844Z" transform="translate(-170.72 -82.553)" fill="#6b7ed9"/>
  <g id="Group_128" data-name="Group 128" transform="translate(45.275 15.559)">
    <path id="Path_95" data-name="Path 95" d="M353.981,125.385a1,1,0,0,1-.707-.293l-3.761-3.761a1,1,0,1,1,1.415-1.415l3.761,3.761a1,1,0,0,1-.707,1.708Z" transform="translate(-349.22 -119.624)" fill="#4d66d2"/>
  </g>
  <g id="Group_129" data-name="Group 129" transform="translate(41.041 19.792)">
    <path id="Path_96" data-name="Path 96" d="M321.432,157.933a1,1,0,0,1-.707-.293l-3.761-3.761a1,1,0,1,1,1.415-1.415l3.761,3.761a1,1,0,0,1-.707,1.708Z" transform="translate(-316.671 -152.171)" fill="#4d66d2"/>
  </g>
  <g id="Group_130" data-name="Group 130" transform="translate(36.808 24.026)">
    <path id="Path_97" data-name="Path 97" d="M288.885,190.48a1,1,0,0,1-.707-.293l-3.761-3.761a1,1,0,0,1,1.415-1.415l3.761,3.761a1,1,0,0,1-.707,1.708Z" transform="translate(-284.124 -184.719)" fill="#4d66d2"/>
  </g>
  <g id="Group_131" data-name="Group 131" transform="translate(32.575 28.259)">
    <path id="Path_98" data-name="Path 98" d="M256.337,223.028a1,1,0,0,1-.707-.293l-3.761-3.761a1,1,0,0,1,1.415-1.415l3.761,3.761a1,1,0,0,1-.707,1.708Z" transform="translate(-251.576 -217.266)" fill="#4d66d2"/>
  </g>
  <g id="Group_132" data-name="Group 132" transform="translate(28.341 32.493)">
    <path id="Path_99" data-name="Path 99" d="M223.79,255.576a1,1,0,0,1-.707-.293l-3.761-3.761a1,1,0,1,1,1.415-1.415l3.761,3.761a1,1,0,0,1-.707,1.708Z" transform="translate(-219.029 -249.814)" fill="#4d66d2"/>
  </g>
  <g id="Group_133" data-name="Group 133" transform="translate(58.907 0.989)">
    <path id="Path_100" data-name="Path 100" d="M455.9,12.625a1,1,0,0,1-.961-.724l-.871-3.021a1,1,0,0,1,1.923-.554l.871,3.021a1,1,0,0,1-.962,1.278Z" transform="translate(-454.027 -7.603)" fill="#6b7ed9"/>
  </g>
  <g id="Group_134" data-name="Group 134" transform="translate(53.278 2.837)">
    <path id="Path_101" data-name="Path 101" d="M412.622,26.836a1,1,0,0,1-.961-.724l-.871-3.021a1,1,0,0,1,1.923-.554l.871,3.021a1,1,0,0,1-.962,1.278Z" transform="translate(-410.751 -21.814)" fill="#6b7ed9"/>
  </g>
  <g id="Group_135" data-name="Group 135" transform="translate(57.671 0)">
    <path id="Path_102" data-name="Path 102" d="M445.523,2.745A1,1,0,0,1,445.2.8l2.2-.743a1,1,0,1,1,.64,1.9l-2.2.743A1,1,0,0,1,445.523,2.745Z" transform="translate(-444.522 0)" fill="#8896e0"/>
  </g>
  <g id="Group_136" data-name="Group 136" transform="translate(52.042 1.849)">
    <path id="Path_103" data-name="Path 103" d="M402.247,16.957a1,1,0,0,1-.32-1.949l2.2-.743a1,1,0,1,1,.64,1.9l-2.2.743a1,1,0,0,1-.32.053Z" transform="translate(-401.246 -14.212)" fill="#8896e0"/>
  </g>
</svg>
