<svg xmlns="http://www.w3.org/2000/svg" width="226.07" height="85.853" viewBox="0 0 226.07 85.853">
  <g id="Group_118" data-name="Group 118" transform="translate(-457.859 -467.929)">
    <path id="Path_283" data-name="Path 283" d="M20.915-23.124a2.717,2.717,0,0,0-1.528-2.7,12.811,12.811,0,0,0-5.1-.729v7.191a16.049,16.049,0,0,0,3.6-.329,4.518,4.518,0,0,0,2.209-1.152A3.081,3.081,0,0,0,20.915-23.124Zm.611,12.549a3.356,3.356,0,0,0-.8-2.4,4.486,4.486,0,0,0-2.3-1.2,19,19,0,0,0-4.136-.352v8.131a12.434,12.434,0,0,0,5.452-.916A3.348,3.348,0,0,0,21.526-10.575Zm5.781-6.157q4.371,2.585,4.371,6.909a9.106,9.106,0,0,1-.729,3.6A9.673,9.673,0,0,1,28.788-3.1,10.021,10.021,0,0,1,25-.87a16.017,16.017,0,0,1-5.311.823H8.789A5.146,5.146,0,0,1,4.676-1.5Q3.431-2.961,3.431-6.721V-26.6A6.663,6.663,0,0,1,4-29.422,4.473,4.473,0,0,1,5.8-31.4a5.668,5.668,0,0,1,2.985-.752H19.552a12.29,12.29,0,0,1,7.825,2.562A7.924,7.924,0,0,1,30.5-23.124a10.492,10.492,0,0,1-.212,2.233,6.183,6.183,0,0,1-.635,1.716,6.023,6.023,0,0,1-.987,1.316A10.437,10.437,0,0,1,27.307-16.732Zm25.427,5.593a13.763,13.763,0,0,0-.611-4.3Q51.512-17.3,50.337-17.3a1.714,1.714,0,0,0-1.41.94,6.674,6.674,0,0,0-.893,2.3,14.369,14.369,0,0,0-.282,2.914,12.288,12.288,0,0,0,.658,4.207q.658,1.81,1.88,1.81t1.833-1.786A13.1,13.1,0,0,0,52.734-11.139ZM50.29.329a15.981,15.981,0,0,1-6.6-1.316,10.9,10.9,0,0,1-4.7-3.948,10.8,10.8,0,0,1-1.763-6.157A10.638,10.638,0,0,1,40.89-19.6a13.915,13.915,0,0,1,9.4-3.149A13.734,13.734,0,0,1,59.643-19.6a10.7,10.7,0,0,1,3.619,8.507,10.28,10.28,0,0,1-3.689,8.366A14.067,14.067,0,0,1,50.29.329ZM78.913-9.917q0,2.679,2.068,2.679a1.9,1.9,0,0,0,1.245-.446,2.762,2.762,0,0,0,.822-1.246,5.494,5.494,0,0,0,.282-1.833v-6.3a6.5,6.5,0,0,1,.564-2.8,4.22,4.22,0,0,1,1.645-1.857,4.785,4.785,0,0,1,2.538-.658,6.262,6.262,0,0,1,3.948,1.1q1.41,1.1,1.41,4.066v12.22q0,2.867-1.175,3.948T88.125.047a7.857,7.857,0,0,1-2.162-.258A3.4,3.4,0,0,1,84.53-.987a3.28,3.28,0,0,1-.823-1.363A12.84,12.84,0,0,1,79.642-.564a20.328,20.328,0,0,1-4.771.517,5.062,5.062,0,0,1-4.794-2.608Q68.62-5.264,68.62-11.233q0-2.961.141-4.818a22.111,22.111,0,0,1,.446-3.2,4.172,4.172,0,0,1,.94-2,3.6,3.6,0,0,1,1.5-.94,7.572,7.572,0,0,1,2.28-.282,5.8,5.8,0,0,1,3.784.987,3.686,3.686,0,0,1,1.151,2.961Zm34.921-2.726q0-2.632-2.068-2.632a1.962,1.962,0,0,0-1.621.822,3.946,3.946,0,0,0-.729,2.186v7.238q0,2.867-1.175,3.948T104.1,0q-2.773,0-3.784-1.293a6.985,6.985,0,0,1-1.01-4.253V-17.108a5.593,5.593,0,0,1,1.292-3.854,4.389,4.389,0,0,1,3.455-1.457,7.729,7.729,0,0,1,3.008.517,3.513,3.513,0,0,1,1.833,1.786,15.965,15.965,0,0,1,8.93-2.4,5.1,5.1,0,0,1,4.818,2.632q1.48,2.632,1.48,8.648,0,2.961-.141,4.817a22.111,22.111,0,0,1-.446,3.2,4.043,4.043,0,0,1-.964,2,3.785,3.785,0,0,1-1.528.94A7.379,7.379,0,0,1,118.816,0a5.8,5.8,0,0,1-3.783-.987A3.626,3.626,0,0,1,113.881-3.9Zm29.375-4.935q0-1.081-1.222-1.081a1.982,1.982,0,0,0-1.6.987,7.3,7.3,0,0,0-1.081,2.467,12.459,12.459,0,0,0-.376,3.079,5.2,5.2,0,0,0,1.434,3.807,5.192,5.192,0,0,0,3.877,1.457,13.468,13.468,0,0,0,4.136-.564,9.054,9.054,0,0,0,1.715-.7,3.855,3.855,0,0,1,1.434-.517,2.21,2.21,0,0,1,1.081.235,1.367,1.367,0,0,1,.587.564,1.555,1.555,0,0,1,.165.705,3.878,3.878,0,0,1-.447,1.6,8.315,8.315,0,0,1-1.387,1.974,12.969,12.969,0,0,1-2.186,1.9,11.011,11.011,0,0,1-3.078,1.434,13.032,13.032,0,0,1-3.854.564A14.5,14.5,0,0,1,132.822-2.8a10.555,10.555,0,0,1-3.76-8.577,10.823,10.823,0,0,1,1.715-6.086,10.735,10.735,0,0,1,4.724-3.948,16.83,16.83,0,0,1,6.909-1.339,18.381,18.381,0,0,1,6.133.869A6.967,6.967,0,0,1,152-19.552a5.853,5.853,0,0,1,1.034,3.478,5.2,5.2,0,0,1-.352,1.833,7.242,7.242,0,0,1-1.081,1.88,5.12,5.12,0,0,1-2.139,1.528,8.508,8.508,0,0,1-3.29.588,8.354,8.354,0,0,1-1.386-.094,3.912,3.912,0,0,1-1.128-.4,1.865,1.865,0,0,1-.87-1.01,4.851,4.851,0,0,1-.282-1.786,9.208,9.208,0,0,1,.353-2.28A9.054,9.054,0,0,0,143.209-17.578Zm15.51-11.374a3.084,3.084,0,0,1,1.34-2.561,6.176,6.176,0,0,1,3.783-1.01q5.123,0,5.123,3.572a3,3,0,0,1-1.292,2.773,7.386,7.386,0,0,1-3.831.8,7.213,7.213,0,0,1-3.666-.846A2.914,2.914,0,0,1,158.719-28.952Zm10.2,23.923q0,2.82-1.175,3.924T163.607,0q-2.773,0-3.783-1.293a6.985,6.985,0,0,1-1.01-4.253V-17.108a5.593,5.593,0,0,1,1.292-3.854,4.389,4.389,0,0,1,3.454-1.457,6.262,6.262,0,0,1,3.948,1.1q1.41,1.1,1.41,4.066Zm20.116-7.614q0-2.632-2.068-2.632a1.962,1.962,0,0,0-1.621.822,3.946,3.946,0,0,0-.729,2.186v7.238q0,2.867-1.175,3.948T179.3,0q-2.773,0-3.783-1.293a6.985,6.985,0,0,1-1.011-4.253V-17.108a5.593,5.593,0,0,1,1.293-3.854,4.389,4.389,0,0,1,3.454-1.457,7.729,7.729,0,0,1,3.008.517,3.513,3.513,0,0,1,1.833,1.786,15.965,15.965,0,0,1,8.93-2.4,5.1,5.1,0,0,1,4.818,2.632q1.48,2.632,1.48,8.648,0,2.961-.141,4.817a22.109,22.109,0,0,1-.447,3.2,4.043,4.043,0,0,1-.964,2,3.785,3.785,0,0,1-1.527.94A7.379,7.379,0,0,1,194.016,0a5.8,5.8,0,0,1-3.783-.987A3.626,3.626,0,0,1,189.081-3.9ZM213.051.282a7.588,7.588,0,0,1-6.157-3.032q-2.444-3.032-2.444-8.342,0-5.358,2.4-8.507A7.41,7.41,0,0,1,213-22.748a10.959,10.959,0,0,1,7.05,2.632,4.222,4.222,0,0,1,4.042-2.3,6.27,6.27,0,0,1,3.971,1.128q1.434,1.128,1.434,4.042v8.6a44.912,44.912,0,0,1-.587,7.825,17.753,17.753,0,0,1-2.021,5.757,9.028,9.028,0,0,1-3.948,3.713,14.064,14.064,0,0,1-6.18,1.222,15.081,15.081,0,0,1-4.7-.7,10.624,10.624,0,0,1-3.431-1.739,10.022,10.022,0,0,1-1.974-2.068,3.348,3.348,0,0,1-.705-1.786,2.249,2.249,0,0,1,.517-1.5,1.8,1.8,0,0,1,1.457-.611,9.634,9.634,0,0,1,2.843,1.222A8.428,8.428,0,0,0,214.461,3.9q4.794,0,4.794-4.935A14.1,14.1,0,0,1,213.051.282Zm6.392-7.05-.047-8.883a2.337,2.337,0,0,0-2.021-1.316,1.81,1.81,0,0,0-1.48.893,6.193,6.193,0,0,0-.94,2.209,12.23,12.23,0,0,0-.306,2.773,9.9,9.9,0,0,0,.705,3.877q.705,1.669,1.974,1.669A2.5,2.5,0,0,0,219.443-6.768ZM20.915,29.876a2.717,2.717,0,0,0-1.528-2.7,12.811,12.811,0,0,0-5.1-.729v7.191a16.049,16.049,0,0,0,3.6-.329,4.518,4.518,0,0,0,2.209-1.152A3.081,3.081,0,0,0,20.915,29.876Zm.611,12.549a3.356,3.356,0,0,0-.8-2.4,4.486,4.486,0,0,0-2.3-1.2,19,19,0,0,0-4.136-.352v8.131a12.434,12.434,0,0,0,5.452-.917A3.348,3.348,0,0,0,21.526,42.425Zm5.781-6.157q4.371,2.585,4.371,6.909a9.106,9.106,0,0,1-.729,3.6A9.673,9.673,0,0,1,28.788,49.9,10.021,10.021,0,0,1,25,52.131a16.017,16.017,0,0,1-5.311.822H8.789A5.146,5.146,0,0,1,4.676,51.5q-1.245-1.457-1.245-5.217V26.4A6.663,6.663,0,0,1,4,23.578,4.473,4.473,0,0,1,5.8,21.6a5.668,5.668,0,0,1,2.985-.752H19.552a12.29,12.29,0,0,1,7.825,2.562A7.924,7.924,0,0,1,30.5,29.876a10.492,10.492,0,0,1-.212,2.232,6.183,6.183,0,0,1-.635,1.716,6.023,6.023,0,0,1-.987,1.316A10.437,10.437,0,0,1,27.307,36.268Zm25.427,5.593a13.763,13.763,0,0,0-.611-4.3Q51.512,35.7,50.337,35.7a1.714,1.714,0,0,0-1.41.94,6.674,6.674,0,0,0-.893,2.3,14.369,14.369,0,0,0-.282,2.914,12.288,12.288,0,0,0,.658,4.207q.658,1.809,1.88,1.809t1.833-1.786A13.1,13.1,0,0,0,52.734,41.861ZM50.29,53.329a15.981,15.981,0,0,1-6.6-1.316,10.726,10.726,0,0,1-6.463-10.1A10.638,10.638,0,0,1,40.89,33.4a13.915,13.915,0,0,1,9.4-3.149A13.734,13.734,0,0,1,59.643,33.4a10.7,10.7,0,0,1,3.619,8.507,10.28,10.28,0,0,1-3.689,8.366A14.067,14.067,0,0,1,50.29,53.329Zm28.435-5.358q0,2.82-1.175,3.924T73.367,53q-2.773,0-3.76-1.292a7.114,7.114,0,0,1-.987-4.254V35.892a6.5,6.5,0,0,1,.564-2.8,4.22,4.22,0,0,1,1.645-1.856,4.785,4.785,0,0,1,2.538-.658q3.572,0,4.7,2.068a8.793,8.793,0,0,1,5.264-2.068q4.935,0,4.935,4.7a4.335,4.335,0,0,1-1.081,3.055,3.654,3.654,0,0,1-2.82,1.175,2.96,2.96,0,0,1-1.669-.423q-.635-.423-1.175-.846a1.964,1.964,0,0,0-1.245-.423,1.8,1.8,0,0,0-1.551.705Zm38.07-2.021q0,3.807-1.269,5.429a4.647,4.647,0,0,1-3.9,1.621q-3.008,0-4.136-1.88a12.255,12.255,0,0,1-7.379,2.209A7.543,7.543,0,0,1,94,50.3q-2.444-3.031-2.444-8.3,0-5.358,2.4-8.53A7.393,7.393,0,0,1,100.11,30.3a10.56,10.56,0,0,1,6.345,2.162V26.445a5.731,5.731,0,0,1,1.41-4.253,5.13,5.13,0,0,1,3.76-1.386,6.125,6.125,0,0,1,3.878,1.034q1.292,1.034,1.292,4.183Zm-10.246.282-.047-8.789a2.368,2.368,0,0,0-2.068-1.316A1.779,1.779,0,0,0,103,37.02a6.5,6.5,0,0,0-.964,2.209A11.4,11.4,0,0,0,101.708,42a9.944,9.944,0,0,0,.705,3.854q.7,1.692,1.974,1.692a2.391,2.391,0,0,0,.47-.047,2.735,2.735,0,0,0,.423-.118,2.106,2.106,0,0,0,.376-.188,1.847,1.847,0,0,0,.329-.258,3.068,3.068,0,0,0,.282-.329Zm28.9,7.05a14.777,14.777,0,0,1-9.47-2.961,9.758,9.758,0,0,1-3.737-8.084,11.034,11.034,0,0,1,3.689-8.765,13.95,13.95,0,0,1,9.518-3.219q5.5,0,8.061,1.95a6.342,6.342,0,0,1,2.561,5.335,4.86,4.86,0,0,1-.164,1.269,4.7,4.7,0,0,1-.517,1.2,4.319,4.319,0,0,1-.94,1.081,7.663,7.663,0,0,1-1.34.893,6.633,6.633,0,0,1-1.786.611,11.013,11.013,0,0,1-2.209.212l-6.627.047a4.454,4.454,0,0,0,1.692,2.374,5.222,5.222,0,0,0,3.1.869,17.384,17.384,0,0,0,4.136-.517,10.7,10.7,0,0,0,1.951-.752,4.14,4.14,0,0,1,1.527-.517,1.575,1.575,0,0,1,1.692,1.645,4.063,4.063,0,0,1-.752,2.044,11.056,11.056,0,0,1-5.64,4.442A13.16,13.16,0,0,1,135.454,53.282Zm-3.2-13.442q3.243-.047,3.525-.047a1.1,1.1,0,0,0,1.034-.846,4.865,4.865,0,0,0,.235-1.692q0-2.961-1.786-2.961a1.78,1.78,0,0,0-1.292.705,6.082,6.082,0,0,0-1.1,2A11.286,11.286,0,0,0,132.258,39.84Zm29.751,8.131q0,2.82-1.175,3.924T156.651,53q-2.773,0-3.76-1.292a7.114,7.114,0,0,1-.987-4.254V35.892a6.5,6.5,0,0,1,.564-2.8,4.22,4.22,0,0,1,1.645-1.856,4.785,4.785,0,0,1,2.538-.658q3.572,0,4.7,2.068a8.793,8.793,0,0,1,5.264-2.068q4.935,0,4.935,4.7a4.335,4.335,0,0,1-1.081,3.055,3.654,3.654,0,0,1-2.82,1.175,2.96,2.96,0,0,1-1.669-.423q-.634-.423-1.175-.846a1.965,1.965,0,0,0-1.246-.423,1.8,1.8,0,0,0-1.551.705Zm24.534-17.719a13.718,13.718,0,0,1,7.285,1.786q2.914,1.786,2.914,3.9a1.572,1.572,0,0,1-.517,1.128,1.783,1.783,0,0,1-1.316.517,3.129,3.129,0,0,1-1.551-.493,16.6,16.6,0,0,1-1.6-1.058A8.22,8.22,0,0,0,189.786,35a7.138,7.138,0,0,0-2.585-.47q-1.833,0-1.833,1.128a1.42,1.42,0,0,0,.94,1.269,16.783,16.783,0,0,0,2.749.987,16.783,16.783,0,0,1,2.75.987,11.96,11.96,0,0,1,4.841,2.938A6.273,6.273,0,0,1,197.964,46a5.057,5.057,0,0,1-.705,2.514,8.133,8.133,0,0,1-2.115,2.35,11.04,11.04,0,0,1-3.831,1.786,20.412,20.412,0,0,1-5.522.681q-6.063,0-9.071-2.773a3.9,3.9,0,0,1-1.457-2.82,1.782,1.782,0,0,1,.587-1.41,2.446,2.446,0,0,1,1.669-.517,8.746,8.746,0,0,1,3.29,1.058,9.548,9.548,0,0,0,4.089,1.057q2.585,0,2.585-1.269,0-.658-1.363-1.057t-3.572-.964a12.108,12.108,0,0,1-3.525-1.41,6.068,6.068,0,0,1-2.891-2.232,6.129,6.129,0,0,1-.822-3.267,6.264,6.264,0,0,1,3.126-5.382A14.316,14.316,0,0,1,186.543,30.252Z" transform="translate(454.428 500.453)" fill="#fff"/>
  </g>
</svg>
