<svg xmlns="http://www.w3.org/2000/svg" width="64" height="64" viewBox="0 0 64 64">
  <g id="Group_152" data-name="Group 152" transform="translate(-548 -3376)">
    <circle id="Ellipse_35" data-name="Ellipse 35" cx="32" cy="32" r="32" transform="translate(548 3376)" fill="#fff"/>
    <g id="phone-call" transform="translate(799 3467.476)">
      <path id="Path_267" data-name="Path 267" d="M8.993,11.213c1.982,1.982,4.195,3,4.93,2.263l.928-.928a1.811,1.811,0,0,1,2.561,0h0L19.462,14.6a2.536,2.536,0,0,1,0,3.586h0l-1.442,1.442c-1.786,1.786-7.137-.67-11.953-5.486A26.065,26.065,0,0,1,.85,7.025C-.142,4.862-.311,3.077.583,2.184L2.025.743a2.536,2.536,0,0,1,3.586,0h0L7.66,2.792a1.811,1.811,0,0,1,0,2.561h0l-.928.928C6,7.018,7.01,9.23,8.993,11.213Z" transform="translate(-222.567 -73.285) rotate(30)" fill="#f257ed"/>
    </g>
  </g>
</svg>
