<svg xmlns="http://www.w3.org/2000/svg" width="690.947" height="596.762" viewBox="0 0 690.947 596.762">
  <g id="Group_205" data-name="Group 205" transform="translate(-651.734 -83.447)">
    <path id="Path_356" data-name="Path 356" d="M-3674,18482.107c37.229,24.838,151.819,56.371,213.221,59.717s150.461-15,208.151-59.717,103.909-101.258,110.521-161.709-30.616-78.342-28.537-154.018,37.56-114.037,10.418-149.957-117.624-3.7-253.641-22.623-176.1-60.369-225.688-45.008-44.962,62.867-76.48,133.1-106.116,116.629-113.108,156-6.167,99.17,44.929,158.756S-3711.229,18457.27-3674,18482.107Z" transform="translate(4484 -17862)" fill="#e0edff"/>
    <path id="Path_354" data-name="Path 354" d="M-3414.392,18108.162s3.75-18.988-.9-30.861-10.255-18.314-16.272-23.205-12.44-6.225-20.8-6.842-12.359-2.4-18.269,0-7.65,6.43-9.592,11.066.759,12.176.759,12.176l58.942,31.727Z" transform="translate(4484 -17864.943)" fill="#ff8341"/>
    <path id="Path_352" data-name="Path 352" d="M-3559.321,18223.914s-10.63,36.67-7.328,46.547,43.35,48.982,43.35,48.982l55.617-3.57-55.617-71.18v-11.678Z" transform="translate(4484 -17799)" fill="#f6a593"/>
    <path id="Path_346" data-name="Path 346" d="M653.185,19206.666s-17.26,1.6-30.452,3.6a165.435,165.435,0,0,0-23.761,5.451s-2.442,40.477-2.721,66.953,1.162,38.891,1.466,41.488c.744,6.369,15.859,112.494,15.859,112.494H730.845v-35.492l2.582-52.937s14.135.99,25.929.635a161.12,161.12,0,0,0,21.248-2.057s4.158-30.572-1.468-79.773-26.772-50.607-26.772-50.607-9.893-1.949-26.4-4.709-35.638-4.5-35.638-4.5-15.416,22.65-17.172,24.258-7.49,3.645-12.86,3.861-9.708-3.205-9.512-7.467S653.185,19206.666,653.185,19206.666Z" transform="translate(369.917 -18899.027)" fill="#07345b"/>
    <path id="Path_348" data-name="Path 348" d="M777.956,19113.2l2.32,35.932-18.029,24.76a18,18,0,0,1-14.637,4.34c-8.833-1.395-6.9-8.1-6.9-8.1l4.048-32.641a59.384,59.384,0,0,0,17.491-8.539C770.547,19122.877,777.956,19113.2,777.956,19113.2Z" transform="translate(279.939 -18840.75)" fill="#f6a593" stroke="#f6a593" stroke-width="1"/>
    <path id="Path_350" data-name="Path 350" d="M857.283,19022.355s9.025.742,8.291,10.984-10.141,8.709-10.141,8.709Z" transform="translate(208.298 -18784.174)" fill="#f6a593"/>
    <path id="Path_351" data-name="Path 351" d="M527.261,19230.822s-9.77-.162-21.231,26.789-25.427,80.719-25.427,80.719l41.431,16.533,3.994-12.7Z" transform="translate(442 -18914.219)" fill="#063453"/>
    <path id="Path_331" data-name="Path 331" d="M-59.8,168.842c-.5.082-2.831,7.49,4.89,7.525s212.191-3.934,212.191-3.934c3.807,0,73.526-34.1,73.526-34.1s.167-1.565.167-3.129-.167-3.127-.167-3.127L.741,131.746h-1.76S-59.3,168.76-59.8,168.842Z" transform="translate(1057 709) rotate(180)" fill="#d9d8d8"/>
    <path id="Path_330" data-name="Path 330" d="M-59.863,168.842c-.46.082-2.939,4.51,4.1,4.545s193.882-.953,193.882-.953c3.866,0,66.9-40.035,66.347-40.035L1,132H-.6S-59.4,168.76-59.863,168.842Z" transform="translate(1055 703) rotate(180)" fill="#ededed"/>
    <path id="Path_347" data-name="Path 347" d="M840.607,19580.875s.908,26.6-2.279,46.295-4.294,20.781-10.47,32.475c-3.574,8.982-1.8,7.84-15.454,10.453s-39.143,0-39.143,0-9.91-2.617-19.748-5.041-20.164-4.479-20.164-4.479l-34.737-14.758,8.382-13.031s26.892,2.848,48.991,2.723,38.755-.629,38.755-.629-.007-16.6.636-29.881,1.936-23.25,1.936-23.25,11.65.7,22.4.7A154.571,154.571,0,0,0,840.607,19580.875Z" transform="translate(306.074 -19132.342)" fill="#f6a593" stroke="#f6a593" stroke-width="1"/>
    <path id="Path_332" data-name="Path 332" d="M7.85,0h215.3C227.486,0,231,3.134,231,7V131a1.066,1.066,0,0,1-1.121,1H1.121A1.066,1.066,0,0,1,0,131V7C0,3.134,3.514,0,7.85,0Z" transform="translate(825 439)" fill="#f7f7f7"/>
    <g id="Group_201" data-name="Group 201" transform="translate(131.658 21.658)">
      <circle id="Ellipse_46" data-name="Ellipse 46" cx="31.5" cy="31.5" r="31.5" transform="translate(777.342 447.342)" fill="#fff"/>
      <g id="react_copy" data-name="react copy" transform="translate(785.664 455.448)">
        <path id="Path_320" data-name="Path 320" d="M45.666,22.833A22.833,22.833,0,1,1,22.833,0,22.8,22.8,0,0,1,45.666,22.833Z" transform="translate(0 0)" fill="#3382f7"/>
        <g id="Group_200" data-name="Group 200" transform="translate(0.673 6.062)">
          <path id="Path_321" data-name="Path 321" d="M128.305,97.589c-.107-.719-.249-1.459-.424-2.215q-.232-1-.539-2.03a44.286,44.286,0,0,0-2.1-5.581q-.563-1.244-1.212-2.495-.57-1.1-1.2-2.2t-1.3-2.141q-.756-1.184-1.555-2.3a44.071,44.071,0,0,0-3.782-4.611q-.739-.781-1.488-1.48-.851-.8-1.707-1.476c-3.718-2.952-7.046-3.838-9.373-2.495s-3.224,4.669-2.527,9.365c.106.719.249,1.459.425,2.215q.229,1,.538,2.03a44.087,44.087,0,0,0,2.1,5.581q.562,1.244,1.211,2.494.57,1.1,1.2,2.2t1.3,2.141q.758,1.185,1.555,2.3a44.049,44.049,0,0,0,3.782,4.61q.74.781,1.489,1.481.851.8,1.706,1.475a17.053,17.053,0,0,0,3.912,2.409,22.736,22.736,0,0,0,7.964-3.78A15.583,15.583,0,0,0,128.305,97.589Zm-2.093,5.16a2.978,2.978,0,0,1-4.291,2.478,13.544,13.544,0,0,1-4.211-2.412q-.76-.6-1.523-1.311-.747-.693-1.489-1.479c-.848-.9-1.687-1.88-2.505-2.934q-.819-1.055-1.609-2.2c-.761-1.106-1.5-2.271-2.2-3.483s-1.341-2.431-1.918-3.643q-.6-1.254-1.1-2.494c-.5-1.236-.936-2.454-1.289-3.637-.205-.69-.385-1.366-.535-2.029s-.281-1.335-.376-1.975a13.533,13.533,0,0,1,.017-4.852,3.5,3.5,0,0,1,1.483-2.387,2.664,2.664,0,0,1,1.352-.334,5.011,5.011,0,0,1,1.456.243,13.537,13.537,0,0,1,4.211,2.411q.76.6,1.523,1.313.748.692,1.488,1.477c.849.9,1.688,1.88,2.507,2.935q.819,1.055,1.609,2.2c.76,1.106,1.5,2.271,2.195,3.482s1.341,2.431,1.918,3.643q.6,1.255,1.1,2.495c.5,1.236.936,2.453,1.289,3.636q.308,1.034.536,2.029c.154.675.28,1.335.375,1.975A13.528,13.528,0,0,1,126.212,102.749Z" transform="translate(-92.539 -67.961)" fill="#fff"/>
          <path id="Path_322" data-name="Path 322" d="M45.017,187.274q-1.014-.4-2.131-.741-.979-.3-2.027-.549a44.114,44.114,0,0,0-5.883-.969c-.9-.09-1.829-.157-2.764-.2-.826-.038-1.663-.058-2.506-.058s-1.68.02-2.507.058c-.937.042-1.86.109-2.765.2a44.1,44.1,0,0,0-5.883.969q-1.047.25-2.027.549-1.116.34-2.131.741c-4.415,1.743-6.847,4.183-6.847,6.869s2.432,5.127,6.847,6.87q1.014.4,2.13.741.979.3,2.027.548a44.1,44.1,0,0,0,5.884.97c.9.089,1.829.156,2.765.2.826.038,1.663.057,2.506.057s1.679-.019,2.505-.057q1.4-.064,2.765-.2a43.983,43.983,0,0,0,5.884-.97q1.047-.25,2.027-.549c.743-.226,1.455-.473,2.13-.74,4.416-1.744,6.847-4.184,6.847-6.87S49.432,189.017,45.017,187.274Zm3.422,9.347a13.523,13.523,0,0,1-4.193,2.441q-.9.356-1.9.663-.974.3-2.024.55c-1.2.286-2.472.521-3.794.7q-1.322.183-2.71.292c-1.339.107-2.716.161-4.115.161s-2.775-.054-4.115-.16c-.924-.073-1.829-.171-2.711-.293-1.322-.182-2.593-.417-3.794-.7q-1.048-.249-2.024-.55-.993-.3-1.9-.663a13.524,13.524,0,0,1-4.193-2.441,2.977,2.977,0,0,1,0-4.954,13.524,13.524,0,0,1,4.193-2.441q.9-.356,1.9-.663.974-.3,2.024-.55c1.2-.286,2.472-.521,3.794-.7.882-.122,1.787-.22,2.711-.293,1.339-.106,2.716-.16,4.115-.16s2.775.054,4.115.161q1.385.108,2.71.292c1.322.182,2.593.417,3.794.7q1.049.249,2.024.55.993.3,1.9.663a13.525,13.525,0,0,1,4.193,2.441,2.976,2.976,0,0,1,0,4.954Z" transform="translate(-7.544 -174.341)" fill="#fff"/>
          <path id="Path_323" data-name="Path 323" d="M125.779,68.572c-2.327-1.343-5.655-.457-9.373,2.495q-.853.678-1.706,1.476-.748.7-1.489,1.481a44.163,44.163,0,0,0-3.783,4.61q-.8,1.11-1.554,2.3-.67,1.044-1.3,2.141t-1.2,2.2q-.647,1.248-1.211,2.494a44.136,44.136,0,0,0-2.1,5.581q-.308,1.033-.539,2.031-.263,1.135-.424,2.214a15.575,15.575,0,0,0,.023,5.5,22.723,22.723,0,0,0,7.964,3.781,17.05,17.05,0,0,0,3.912-2.409q.854-.678,1.707-1.475.748-.7,1.488-1.48a44.2,44.2,0,0,0,3.782-4.611q.8-1.11,1.555-2.3.67-1.044,1.3-2.141t1.2-2.2q.647-1.248,1.212-2.495a44.225,44.225,0,0,0,2.1-5.581q.306-1.032.538-2.03c.176-.757.318-1.5.425-2.215C129,73.241,128.106,69.916,125.779,68.572Zm-.46,13.061c-.353,1.183-.785,2.4-1.289,3.636q-.5,1.237-1.1,2.495c-.577,1.212-1.218,2.431-1.918,3.643s-1.434,2.376-2.195,3.482q-.788,1.146-1.609,2.2c-.818,1.054-1.657,2.036-2.506,2.934q-.739.783-1.488,1.478t-1.523,1.312a13.545,13.545,0,0,1-4.211,2.412,2.978,2.978,0,0,1-4.291-2.478,13.531,13.531,0,0,1-.017-4.852c.1-.64.221-1.3.375-1.975s.331-1.339.536-2.029c.353-1.183.785-2.4,1.289-3.637q.5-1.237,1.1-2.494c.577-1.212,1.218-2.432,1.918-3.643s1.434-2.377,2.2-3.483q.787-1.145,1.608-2.2c.819-1.055,1.658-2.037,2.506-2.935q.741-.784,1.489-1.478t1.523-1.312a13.542,13.542,0,0,1,4.211-2.411,5.011,5.011,0,0,1,1.456-.243,2.662,2.662,0,0,1,1.352.334,3.5,3.5,0,0,1,1.483,2.387,13.533,13.533,0,0,1,.017,4.852c-.1.64-.221,1.3-.376,1.975S125.524,80.943,125.319,81.633Z" transform="translate(-92.54 -67.961)" fill="#fff"/>
          <circle id="Ellipse_45" data-name="Ellipse 45" cx="4.165" cy="4.165" r="4.165" transform="translate(17.995 15.637)" fill="#f2f2f2"/>
        </g>
      </g>
    </g>
    <path id="Path_353" data-name="Path 353" d="M-3459.563,18156.965l-1.821,14.879a79,79,0,0,0,19.149-12.984,155.079,155.079,0,0,0,16.863-19.529l-.424-7.777Z" transform="translate(4484 -17862)" fill="#f5937e"/>
    <path id="Path_349" data-name="Path 349" d="M32.752-7.08c18.318-.675,33.49,22.632,33.49,47.273S54.122,75.881,41.815,85.677c-7.659,5.348-14.369,8.62-18.547,7.616S12.46,90.627,6.179,78.328s-7.425-26.353-7.425-38.4c0-12.518,2.676-32.636,9.1-40.759C13.94-8.523,14.434-6.405,32.752-7.08Z" transform="translate(999.585 203)" fill="#f6a593"/>
    <path id="Path_355" data-name="Path 355" d="M0,0H29.146s.1,10.457-14.827,10.462S0,0,0,0Z" transform="translate(1014.729 264.508) rotate(-2)" fill="#fff"/>
    <g id="css" transform="matrix(0.998, -0.07, 0.07, 0.998, 821.62, 251.615)">
      <path id="Path_324" data-name="Path 324" d="M32,0l4.9,55.372,22.014,6.152,22.006-6.149L85.834,0Z" transform="translate(-32)" fill="#3382f7"/>
      <path id="Path_325" data-name="Path 325" d="M147.653,100.995l-.619,6.956L145.165,128.8l-13.947,3.857-.012,0L117.268,128.8l-.973-10.905h6.829l.508,5.656,7.579,2.046,0,0,7.591-2.046,1.034-9.425-23.871.065-.677-6.445,25.121-.3.508-6.9-26.3.073-.442-6.418H148.26Z" transform="translate(-104.301 -82.888)" fill="#fff"/>
    </g>
    <g id="html-5_1_" data-name="html-5 (1)" transform="translate(732.245 358.023) rotate(-12)">
      <path id="Path_326" data-name="Path 326" d="M32,0l5.23,59.064,23.482,6.563,23.474-6.559L89.424,0Z" transform="translate(-32)" fill="#ff5722"/>
      <path id="Path_327" data-name="Path 327" d="M150.841,101.447H123.319l.656,7.42h26.21l-1.973,22.248-14.741,4.114-.012,0-14.733-4.118-1.03-11.636h7.219l.537,6.038,8.011,2.178.008,0h0l8.019-2.178.837-9.4H117.4l-1.944-21.907h36.025Z" transform="translate(-104.759 -82.133)" fill="#fff"/>
    </g>
    <g id="Group_204" data-name="Group 204" transform="translate(9.5 -64.5)">
      <circle id="Ellipse_48" data-name="Ellipse 48" cx="36.5" cy="36.5" r="36.5" transform="translate(870.5 187.5)" fill="#fff"/>
      <g id="sass" transform="translate(876.396 193.726)">
        <path id="Path_328" data-name="Path 328" d="M60.353,30.177q0,1.4-.126,2.764-.1,1.081-.271,2.136a30.2,30.2,0,1,1,.4-4.9Z" fill="#fff"/>
        <path id="Path_329" data-name="Path 329" d="M73.754,73.164c-.915.346-.878.352-1.362-.53a7.655,7.655,0,0,1-.976-3.589,8.319,8.319,0,0,1,.658-3.132c.3-.8-.091-1.081-.783-1.154a7.545,7.545,0,0,0-1.529,0c-1.313.134-1.442.248-1.791,1.522a12.982,12.982,0,0,1-.716,2.237c-.847,1.767-1.811,3.47-2.8,5.16a4.424,4.424,0,0,1-.574.892,6.69,6.69,0,0,1-1.046-3.5,8.87,8.87,0,0,1,.728-3.492.55.55,0,0,0-.3-.778,1.32,1.32,0,0,0-.467-.153,7.114,7.114,0,0,0-2.5.174.87.87,0,0,0-.693.724,11.054,11.054,0,0,1-.748,2.359q-1.4,3.152-2.8,6.309c-.813,1.827-1.614,3.658-2.577,5.412-.068.124-.124.34-.294.3s-.112-.255-.12-.4a10.386,10.386,0,0,1,.467-3.009c.381-1.563.8-3.119,1.2-4.677a.8.8,0,0,0-.45-.962,1.368,1.368,0,0,0-1.642.108,10.052,10.052,0,0,0,.086-1.751A2.108,2.108,0,0,0,51.079,69,3.378,3.378,0,0,0,49,69.384,10.509,10.509,0,0,0,45.21,72.52a1.372,1.372,0,0,1-.418.39q-2.906,1.583-5.806,3.177a.352.352,0,0,1-.5-.079,27,27,0,0,0-3.221-2.777,35.744,35.744,0,0,1-4.529-3.853A7.447,7.447,0,0,1,28.96,66.43a6.757,6.757,0,0,1,.759-5.252,15.615,15.615,0,0,1,4.358-4.8,42,42,0,0,1,8.938-5.216,25.235,25.235,0,0,1,11.178-2.41,9.845,9.845,0,0,1,4.455,1.092,3.305,3.305,0,0,1,1.816,2.463,6.025,6.025,0,0,1-.7,3.752,14.535,14.535,0,0,1-5.938,5.934,19.737,19.737,0,0,1-6.7,2.382,12.361,12.361,0,0,1-3.948.156,6.1,6.1,0,0,1-3.949-1.956.369.369,0,0,0-.474-.139c-.208.1-.192.286-.172.463a1.6,1.6,0,0,0,.091.361,4.254,4.254,0,0,0,1.4,1.8,8.473,8.473,0,0,0,5.415,1.7,22.451,22.451,0,0,0,5.689-.654,17.216,17.216,0,0,0,10.35-6.635,11.341,11.341,0,0,0,2.436-7.141A6.248,6.248,0,0,0,62.1,47.914,10.455,10.455,0,0,0,56.847,45.3a19.555,19.555,0,0,0-6.614-.288,27.291,27.291,0,0,0-5.673,1.262,50.618,50.618,0,0,0-8.149,3.616,34.953,34.953,0,0,0-7.394,5.317,17.6,17.6,0,0,0-4.578,6.549,6.005,6.005,0,0,0-.424,3.439,9.7,9.7,0,0,0,2.1,4.074A27.282,27.282,0,0,0,31.388,73.9C32.921,75,34.526,76,36,77.183c.418.335.415.335-.076.592-.574.3-1.154.587-1.718.906A25.117,25.117,0,0,0,27.936,83.3a7.1,7.1,0,0,0-1.763,3.216,4.662,4.662,0,0,0,1.384,4.17c2.189,1.7,3.074,1.7,3.779,1.721a10.372,10.372,0,0,0,9.318-9.522,10.829,10.829,0,0,0-.438-4.284c-.075-.246-.355-.491-.245-.708.1-.2.41-.3.637-.431.914-.531,1.83-1.054,2.771-1.595a.808.808,0,0,1-.073.448,12.994,12.994,0,0,0-.5,6.032,8.4,8.4,0,0,0,1.488,3.547,2.282,2.282,0,0,0,3.441-.03,16.424,16.424,0,0,0,1.684-3.074c.271-.581.52-1.173.778-1.76a19.623,19.623,0,0,0-.02,2.084,4.053,4.053,0,0,0,.486,1.945,1.418,1.418,0,0,0,1.961.544,4.353,4.353,0,0,0,1.727-1.8,83.62,83.62,0,0,0,4.785-9.618c.291-.706.589-1.41.918-2.195.05.257.084.415.115.573a15.014,15.014,0,0,0,1.623,4.488.636.636,0,0,1-.063.8c-.719.979-1.508,1.9-2.285,2.832a24.372,24.372,0,0,0-1.9,2.394,1.061,1.061,0,0,0,.613,1.747,3.522,3.522,0,0,0,.781.066,8.222,8.222,0,0,0,4.007-1.152,4.626,4.626,0,0,0,2.609-4.323,6.843,6.843,0,0,0-.628-2.594.438.438,0,0,1,.036-.489,48.007,48.007,0,0,0,3.111-5.169,4.5,4.5,0,0,1,.552-.969c.036.124.064.2.08.282a13.978,13.978,0,0,0,1.453,4.242c.207.361.1.544-.182.786A11.307,11.307,0,0,0,67.5,78.434a5.52,5.52,0,0,0-.851,2.817,1.505,1.505,0,0,0,1.976,1.535,8.791,8.791,0,0,0,3.178-1.446c2.088-1.529,2.7-3.141,2.046-5.391-.256-.886-.251-.871.637-1.139a12.927,12.927,0,0,1,5.894-.288q.336.055.665.127.174-1.055.271-2.136A12.561,12.561,0,0,0,73.754,73.164ZM32.712,89.01a4.207,4.207,0,0,1-1.747.238A1.344,1.344,0,0,1,29.7,87.872a4.948,4.948,0,0,1,.615-2.535A10.361,10.361,0,0,1,33.5,81.929,36.607,36.607,0,0,1,37.319,79.4c.4-.236.4-.234.5.24A7.017,7.017,0,0,1,38,81.412,8.186,8.186,0,0,1,32.712,89.01ZM50.791,72.285a20.446,20.446,0,0,1-1.153,4.045c-.663,1.8-1.308,3.6-2.142,5.327a4.186,4.186,0,0,1-.7,1.117c-.292.307-.551.271-.753-.1a5.328,5.328,0,0,1-.409-2.137,12.311,12.311,0,0,1,2.653-7.569,3.318,3.318,0,0,1,1.818-1.3C50.631,71.531,50.873,71.743,50.791,72.285Zm11.48,8.781a5.533,5.533,0,0,1-2.364,2.179c-.106.053-.243.147-.339.022s.055-.195.122-.269c.987-1.078,1.961-2.164,2.839-3.333.014-.019.047-.021.122-.053A2.906,2.906,0,0,1,62.27,81.066Zm6.813-.042c-.147.069-.316.2-.459.087s-.095-.337-.047-.5a8.811,8.811,0,0,1,.942-2.144,7.932,7.932,0,0,1,1.26-1.52c.192-.185.278-.163.344.1a3.614,3.614,0,0,1,.079.821A3.319,3.319,0,0,1,69.083,81.024Z" transform="translate(-21.091 -39.572)" fill="#cd6699"/>
      </g>
    </g>
    <g id="redux" transform="translate(1241.528 322.35) rotate(13)">
      <circle id="Ellipse_47" data-name="Ellipse 47" cx="36" cy="36" r="36" transform="translate(-20.85 5.301)" fill="#fff"/>
      <path id="Path_333" data-name="Path 333" d="M45.1,58.85a3.5,3.5,0,0,0-.374-6.984H44.6a3.489,3.489,0,0,0-3.367,3.617,3.581,3.581,0,0,0,1,2.307c-2.12,4.178-5.362,7.233-10.226,9.79a16.863,16.863,0,0,1-10.164,1.933,8.668,8.668,0,0,1-6.36-3.679,9.159,9.159,0,0,1-.5-9.665,14.678,14.678,0,0,1,4.24-4.988C18.976,50.369,18.6,49,18.414,48c-9.041,6.547-8.106,15.4-5.362,19.579C15.11,70.7,19.287,72.63,23.9,72.63a15.329,15.329,0,0,0,3.741-.436A23.929,23.929,0,0,0,45.1,58.85Z" transform="translate(-19 -11.063)" fill="#764abc"/>
      <path id="Path_334" data-name="Path 334" d="M66.748,46.676c-4.739-5.55-11.723-8.6-19.7-8.6h-1A3.426,3.426,0,0,0,42.991,36.2h-.125a3.493,3.493,0,0,0,.125,6.984h.125a3.512,3.512,0,0,0,3.055-2.12h1.122a23.766,23.766,0,0,1,13.282,4.053,16.7,16.7,0,0,1,6.61,7.981,8.643,8.643,0,0,1-.125,7.358,9.154,9.154,0,0,1-8.543,5.113,15.948,15.948,0,0,1-6.111-1.309c-.686.624-1.933,1.621-2.806,2.245a19.248,19.248,0,0,0,8.044,1.933c5.986,0,10.413-3.3,12.1-6.61,1.808-3.617,1.684-9.852-2.993-15.152Z" transform="translate(-29.671 -6.621)" fill="#764abc"/>
      <path id="Path_335" data-name="Path 335" d="M30.31,46.847A3.5,3.5,0,0,0,33.8,50.214h.125A3.493,3.493,0,0,0,33.8,43.23h-.125a1.061,1.061,0,0,0-.436.062A22.847,22.847,0,0,1,30,29.45a16.727,16.727,0,0,1,3.679-9.665c1.808-2.307,5.3-3.43,7.67-3.492,6.61-.125,9.416,8.106,9.6,11.411.811.187,2.182.624,3.118.935C53.318,18.538,47.083,13.3,41.1,13.3c-5.612,0-10.787,4.053-12.845,10.039-2.868,7.981-1,15.651,2.494,21.7a2.8,2.8,0,0,0-.436,1.808Z" transform="translate(-24.909 2)" fill="#764abc"/>
    </g>
    <g id="javascript_1_" data-name="javascript (1)" transform="matrix(0.996, 0.087, -0.087, 0.996, 1078.112, 133.768)">
      <path id="Path_339" data-name="Path 339" d="M0,0H55.8V55.8H0Z" transform="translate(74 45)" fill="#ffd04a"/>
      <g id="Group_202" data-name="Group 202" transform="translate(84.598 62.943)">
        <path id="Path_337" data-name="Path 337" d="M309.472,187.085c-.947-2.745-4.828-2.745-5.585-.473s1.8,3.6,5.775,4.923,6.438,4.828,5.964,7.952-1.8,7.195-9.656,7.195a10.2,10.2,0,0,1-9-5.371l4.452-2.675s1.515,3.219,4.355,3.219,3.976-.947,3.976-3.124c0-2.651-9.183-3.6-10.6-8.141s.473-10.981,7.1-10.508a10.273,10.273,0,0,1,7.636,3.813Z" transform="translate(-277.948 -180.055)" fill="#fff"/>
        <path id="Path_338" data-name="Path 338" d="M164.658,183.8v18.176a3,3,0,0,1-3.787,2.935c-1.893-.379-2.745-2.651-2.745-2.651l-4.355,2.935s.947,4.355,6.911,4.733,9.372-3.219,9.372-6.248V183.8Z" transform="translate(-153.771 -183.307)" fill="#fff"/>
      </g>
    </g>
  </g>
</svg>
