<svg xmlns="http://www.w3.org/2000/svg" width="20.229" height="17.658" viewBox="0 0 20.229 17.658">
  <path id="Union_4" data-name="Union 4" d="M6.892,18.517l-6.6-7.388a1.488,1.488,0,0,1-.325-1.2A1.385,1.385,0,0,1,.3,9.044L6.92,1.628a1.366,1.366,0,0,1,2.046.187,1.742,1.742,0,0,1,.192,2.262l-3.8,4.258H18.441a1.738,1.738,0,0,1,0,3.476H5.339l3.8,4.249a1.755,1.755,0,0,1-.184,2.28,1.631,1.631,0,0,1-1.182.566A1.154,1.154,0,0,1,6.892,18.517Z" transform="translate(20.179 18.906) rotate(180)" fill="#3382f7"/>
</svg>
