<svg xmlns="http://www.w3.org/2000/svg" width="52" height="52" viewBox="0 0 52 52">
  <g id="Group_172" data-name="Group 172" transform="translate(-652 -1072)">
    <circle id="Ellipse_39" data-name="Ellipse 39" cx="26" cy="26" r="26" transform="translate(652 1072)" fill="#fff"/>
    <g id="freepik-logo-" transform="translate(663.798 1051.429)">
      <path id="Path_289" data-name="Path 289" d="M187.288,37.516a14.89,14.89,0,0,1,3.121-.728,20.8,20.8,0,0,1,2.144-.14,8.893,8.893,0,0,1,1.541.133l.143-.907a9.46,9.46,0,0,0-3.225-.279l-.144-.494a1.256,1.256,0,1,0-.523,0l.16.549a12.807,12.807,0,0,0-3.491,1.028Z" transform="translate(-176.333)" fill="#3382f7"/>
      <path id="Path_290" data-name="Path 290" d="M5.44,169.182c.045-.058.09-.113.134-.167l-.371-.27-.581-.425a8.58,8.58,0,0,0-1.667,2.438,1.051,1.051,0,0,0-.108-.142,1.131,1.131,0,0,0-.9-.35H1.931a.741.741,0,0,1-.509-.176.8.8,0,1,0-.428.279,1.22,1.22,0,0,0,.962.4.648.648,0,0,1,.52.184.87.87,0,0,1,.19.509l0,.006a8.616,8.616,0,0,0-.37,3.176l1.257.05a9.5,9.5,0,0,1,.442-2.654,12.388,12.388,0,0,1,1.443-2.848Z" transform="translate(0 -127.954)" fill="#3382f7"/>
      <path id="Path_291" data-name="Path 291" d="M398.078,121.629a.793.793,0,0,0-.77.993,1.225,1.225,0,0,0-.4.962.649.649,0,0,1-.184.52.751.751,0,0,1-.351.166,9.755,9.755,0,0,0-2.09-2.111l-.9.968a14.165,14.165,0,0,1,2.057,2.368,16.64,16.64,0,0,1,1.351,2.4l1.219-.577a18.459,18.459,0,0,0-1.34-2.607,1.157,1.157,0,0,0,.393-.229,1.134,1.134,0,0,0,.35-.9.747.747,0,0,1,.176-.526.8.8,0,1,0,.491-1.421Z" transform="translate(-370.914 -83.929)" fill="#3382f7"/>
      <path id="Path_292" data-name="Path 292" d="M102.084,292.507a27.082,27.082,0,0,1-8.067,2.4,29.675,29.675,0,0,1-4.078.273,34.13,34.13,0,0,1-4.231-.267,28.653,28.653,0,0,1-2.886-.5h-.011a10.6,10.6,0,0,0,.535,1.371s0,.005,0,.008l.015.032c.026.053.051.107.078.16s.051.1.077.15l.02.039a8.944,8.944,0,0,0,1.285,1.842,6.706,6.706,0,0,0,3.474,2.172l.027,0,.026.009a13.847,13.847,0,0,0,3.916.506,17.157,17.157,0,0,0,6.749-1.387,10.98,10.98,0,0,0,3.869-3.178,8.838,8.838,0,0,0,1.251-2.729,7.135,7.135,0,0,0,.176-2.17A19.34,19.34,0,0,1,102.084,292.507Z" transform="translate(-78.081 -243.86)" fill="#3382f7"/>
      <path id="Path_293" data-name="Path 293" d="M85.565,127.682a26.08,26.08,0,0,0,7.731-2.294,16.939,16.939,0,0,0,2.523-1.474,16.521,16.521,0,0,0-2.076-4.337c-2.384-3.408-4.955-4.284-6.276-4.5a8.268,8.268,0,0,0-1.479-.132,20.224,20.224,0,0,0-2.074.137,14.307,14.307,0,0,0-3.012.708,11.628,11.628,0,0,0-4.2,2.437l-.038.035a8.2,8.2,0,0,0-.929,1A12.2,12.2,0,0,0,74.4,121.94a9.9,9.9,0,0,0-.4,2.927v0a10.862,10.862,0,0,0,.059,1.2c0,.006-.01.013-.009.019a1.314,1.314,0,0,1,.007.149h0c.057.281.089.565.146.841l.006,0h0A31.616,31.616,0,0,0,85.565,127.682Zm4.77-9.213a2.073,2.073,0,1,1-2.073,2.073A2.073,2.073,0,0,1,90.334,118.47Zm-9.8-.084a3.351,3.351,0,1,1-3.351,3.351A3.351,3.351,0,0,1,80.531,118.386Zm-6.464,7.873q.053.405.138.817Q74.12,126.664,74.067,126.259Z" transform="translate(-69.768 -77.626)" fill="#3382f7"/>
    </g>
  </g>
</svg>
