<svg xmlns="http://www.w3.org/2000/svg" width="52" height="52" viewBox="0 0 52 52">
  <g id="Group_155" data-name="Group 155" transform="translate(-676 -1014)">
    <circle id="Ellipse_39" data-name="Ellipse 39" cx="26" cy="26" r="26" transform="translate(676 1014)" fill="#fff"/>
    <path id="Subtraction_2" data-name="Subtraction 2" d="M4366.082-8784.633a15.468,15.468,0,0,1-3.72-.451v-5.157a4.443,4.443,0,0,1-.972.114,3.8,3.8,0,0,1-1.124-.172,4.067,4.067,0,0,1-2.351-1.979c-.363-.632-.99-1.307-1.658-1.307l-.071,0-.17-1.979c.079-.008.163-.011.251-.011a4.043,4.043,0,0,1,3.308,2.277,2.158,2.158,0,0,0,1.237,1.091,1.849,1.849,0,0,0,.538.077,3.19,3.19,0,0,0,1.083-.224,3.737,3.737,0,0,1,.839-1.965l.007-.01c.1-.133.2-.271.289-.415-4.289-.657-6-3-6.679-4.852a7.97,7.97,0,0,1,1.175-7.463.258.258,0,0,0,.064-.2,6.472,6.472,0,0,1,.14-4.176l0-.006a1.428,1.428,0,0,0,.051-.161,2.488,2.488,0,0,0,.576.1c.52.041,1.107.088,3.078,1.321l.462.285a.332.332,0,0,0,.152.069.136.136,0,0,0,.038-.007l.01,0a.58.58,0,0,1,.127-.024,13.548,13.548,0,0,1,3.457-.5,13.729,13.729,0,0,1,3.5.514l.15.016s0,0,.009-.006a.572.572,0,0,0,.122-.061c2.459-1.533,3.033-1.569,3.539-1.6a2.015,2.015,0,0,0,.582-.1,1.582,1.582,0,0,0,.052.167,6.566,6.566,0,0,1,.134,4.178c-.02.063.084.222.256.486a7.544,7.544,0,0,1,.983,7.18c-.678,1.851-2.386,4.194-6.679,4.852.105.166.217.318.324.466l.014.019a3.737,3.737,0,0,1,.87,2.618v6.484A15.672,15.672,0,0,1,4366.082-8784.633Z" transform="translate(-3664.014 9838.602)" fill="#ff7108"/>
  </g>
</svg>
