<svg xmlns="http://www.w3.org/2000/svg" width="52" height="52" viewBox="0 0 52 52">
  <g id="Group_197" data-name="Group 197" transform="translate(-253 -409)">
    <g id="linkedin" transform="translate(267 421.668)">
      <circle id="Ellipse_39" data-name="Ellipse 39" cx="26" cy="26" r="26" transform="translate(-14 -12.668)" fill="#3382f7"/>
      <path id="Path_316" data-name="Path 316" d="M3.277-.668A3.019,3.019,0,1,0,3.2,5.354h.038A3.021,3.021,0,1,0,3.277-.668Zm0,0" transform="translate(0)" fill="#fff"/>
      <path id="Path_317" data-name="Path 317" d="M8.109,198.313H13.9v17.429H8.109Zm0,0" transform="translate(-7.767 -190.579)" fill="#fff"/>
      <path id="Path_318" data-name="Path 318" d="M232.229,188.625c-3.125,0-5.221,2.937-5.221,2.937v-2.528h-5.793v17.429h5.793V196.73a3.97,3.97,0,0,1,.191-1.414,3.171,3.171,0,0,1,2.972-2.118c2.1,0,2.935,1.6,2.935,3.941v9.324H238.9v-9.993C238.9,191.116,236.04,188.625,232.229,188.625Zm0,0" transform="translate(-211.874 -181.3)" fill="#fff"/>
    </g>
  </g>
</svg>
