<svg xmlns="http://www.w3.org/2000/svg" width="52" height="52" viewBox="0 0 52 52">
  <g id="Group_153" data-name="Group 153" transform="translate(-742 -1014)">
    <circle id="Ellipse_40" data-name="Ellipse 40" cx="26" cy="26" r="26" transform="translate(742 1014)" fill="#fff"/>
    <path id="world-wide-web_1_" data-name="world-wide-web (1)" d="M25.132,17.177a12.926,12.926,0,0,0,0-8.5.93.93,0,0,0-.041-.117,12.925,12.925,0,0,0-24.328,0,.918.918,0,0,0-.041.117,12.926,12.926,0,0,0,0,8.5.931.931,0,0,0,.041.117,12.925,12.925,0,0,0,24.328,0A.923.923,0,0,0,25.132,17.177ZM12.927,24c-.492,0-1.286-.891-1.949-2.881a20.29,20.29,0,0,1-.763-3.265h5.425a20.307,20.307,0,0,1-.763,3.265C14.212,23.106,13.419,24,12.927,24ZM9.99,16c-.089-.988-.136-2.019-.136-3.073s.047-2.085.136-3.073h5.874c.089.988.136,2.019.136,3.073S15.953,15.01,15.864,16ZM1.855,12.925a11.04,11.04,0,0,1,.434-3.073H8.131C8.045,10.86,8,11.893,8,12.925S8.045,14.99,8.131,16H2.289A11.041,11.041,0,0,1,1.855,12.925ZM12.927,1.853c.492,0,1.286.891,1.949,2.881A20.292,20.292,0,0,1,15.639,8H10.214a20.289,20.289,0,0,1,.763-3.265C11.641,2.744,12.434,1.853,12.927,1.853Zm4.8,8h5.842a11.091,11.091,0,0,1,0,6.146H17.722c.087-1.008.131-2.042.131-3.073S17.808,10.86,17.722,9.852ZM22.84,8H17.509a17.781,17.781,0,0,0-1.688-5.761A11.12,11.12,0,0,1,22.84,8ZM10.032,2.237A17.781,17.781,0,0,0,8.344,8H3.013A11.121,11.121,0,0,1,10.032,2.237ZM3.013,17.851H8.344a17.783,17.783,0,0,0,1.688,5.761A11.12,11.12,0,0,1,3.013,17.851Zm12.808,5.761a17.781,17.781,0,0,0,1.688-5.761H22.84A11.12,11.12,0,0,1,15.821,23.612Z" transform="translate(754.998 1027)" fill="#ffc3fd"/>
  </g>
</svg>
