<svg xmlns="http://www.w3.org/2000/svg" width="66.594" height="43.805" viewBox="0 0 66.594 43.805">
  <g id="toast" transform="translate(0 -18.758)">
    <path id="Path_218" data-name="Path 218" d="M8.225,259.981,13.989,261l-.678,3.843-5.764-1.016a1.951,1.951,0,0,0-2.26,1.583l-1.355,7.685a1.951,1.951,0,0,0,1.583,2.26l5.764,1.016-.678,3.843-5.764-1.016A5.853,5.853,0,0,1,.09,272.414l1.355-7.685A5.853,5.853,0,0,1,8.225,259.981Z" transform="translate(0 -228.103)" fill="#ff9f00"/>
    <path id="Path_219" data-name="Path 219" d="M74.158,237.708l-4.743,26.9a3.914,3.914,0,0,1-4.52,3.165l-15.371-2.71a3.914,3.914,0,0,1-3.165-4.52l4.743-26.9Z" transform="translate(-40.277 -205.269)" fill="#fdbf00"/>
    <path id="Path_220" data-name="Path 220" d="M147.128,251.3l-4.743,26.9a3.914,3.914,0,0,1-4.52,3.165l-7.685-1.355,5.421-30.742Z" transform="translate(-113.247 -218.865)" fill="#ff9f00"/>
    <path id="Path_221" data-name="Path 221" d="M86.42,172.151a5.845,5.845,0,0,1-6.781,4.748,5.729,5.729,0,0,1-4.015-2.848,7.736,7.736,0,0,1-10.452-1.843,5.729,5.729,0,0,1-4.747,1.3,5.853,5.853,0,1,1,2.033-11.528,5.932,5.932,0,0,1,2.5,1.114,7.806,7.806,0,0,1,13.988,2.466,5.932,5.932,0,0,1,2.728-.193A5.846,5.846,0,0,1,86.42,172.151Z" transform="translate(-48.357 -140.956)" fill="#ffe1ba"/>
    <path id="Path_222" data-name="Path 222" d="M183.031,172.954a5.845,5.845,0,0,1-6.781,4.748,5.729,5.729,0,0,1-4.015-2.848,7.806,7.806,0,0,1-5.592,1.154l2.71-15.371a7.82,7.82,0,0,1,6.2,5.729,5.932,5.932,0,0,1,2.728-.193A5.846,5.846,0,0,1,183.031,172.954Z" transform="translate(-144.969 -141.759)" fill="#ffd396"/>
    <path id="Path_223" data-name="Path 223" d="M410.206,259.981,404.442,261l.678,3.843,5.764-1.016a1.951,1.951,0,0,1,2.26,1.583l1.355,7.685a1.951,1.951,0,0,1-1.583,2.26l-5.764,1.016.678,3.843,5.764-1.016a5.853,5.853,0,0,0,4.748-6.781l-1.355-7.685A5.853,5.853,0,0,0,410.206,259.981Z" transform="translate(-351.837 -228.103)" fill="#ff7816"/>
    <path id="Path_224" data-name="Path 224" d="M274.568,233.642l4.743,26.9a3.914,3.914,0,0,1-3.165,4.52l-15.371,2.71a3.914,3.914,0,0,1-4.52-3.165l-4.743-26.9Z" transform="translate(-218.798 -205.269)" fill="#fdbf00"/>
    <path id="Path_225" data-name="Path 225" d="M351.672,233.642l4.743,26.9a3.914,3.914,0,0,1-3.165,4.52l-7.685,1.355-5.421-30.742Z" transform="translate(-295.902 -205.269)" fill="#ff9f00"/>
    <path id="Path_226" data-name="Path 226" d="M249.5,166.734a5.845,5.845,0,0,1-4.748,6.781,5.729,5.729,0,0,1-4.747-1.3,7.736,7.736,0,0,1-10.452,1.843,5.729,5.729,0,0,1-4.015,2.848,5.853,5.853,0,1,1-2.033-11.528,5.932,5.932,0,0,1,2.728.192,7.806,7.806,0,0,1,13.988-2.466,5.931,5.931,0,0,1,2.5-1.114A5.845,5.845,0,0,1,249.5,166.734Z" transform="translate(-190.226 -140.96)" fill="#ffe1ba"/>
    <path id="Path_227" data-name="Path 227" d="M341.581,166.733a5.845,5.845,0,0,1-4.748,6.781,5.729,5.729,0,0,1-4.747-1.3,7.806,7.806,0,0,1-4.86,3l-2.71-15.371A7.82,7.82,0,0,1,332.3,163.1a5.931,5.931,0,0,1,2.5-1.114A5.845,5.845,0,0,1,341.581,166.733Z" transform="translate(-282.307 -140.959)" fill="#ffd396"/>
  </g>
</svg>
