<svg xmlns="http://www.w3.org/2000/svg" width="57.497" height="65.084" viewBox="0 0 57.497 65.084">
  <g id="hiking_1_" data-name="hiking (1)" transform="translate(8.385 -3.549) rotate(17)">
    <path id="Path_105" data-name="Path 105" d="M50.9,132.3l-7.074,1.973a.992.992,0,0,1-1.241-.77l-2.137-6.7a2.31,2.31,0,0,1,.419-2.172l1.523-1.846a2.359,2.359,0,0,0,.539-1.5v-5.587a.954.954,0,0,1,.676-.913l6.26-1.9Z" transform="translate(-35.747 -98.194)" fill="#82cd64"/>
    <path id="Path_107" data-name="Path 107" d="M246.771,309.154l-2.408,2.13a.388.388,0,0,1-.555-.05l-9.364-9.537a.471.471,0,0,1,.041-.659l2.831-2.461a.461.461,0,0,1,.652.057l8.839,9.949A.413.413,0,0,1,246.771,309.154Z" transform="translate(-204.503 -259.647)" fill="#ffaf82"/>
    <path id="Path_108" data-name="Path 108" d="M244.761,320.5l-8.992-9.469c-.223-.261-.287-.576-.143-.7l-1.267,1.1c-.144.125-.08.441.143.7l9.181,9.321c.19.226.445.322.567.213l1.078-.953C245.206,320.818,244.951,320.722,244.761,320.5Z" transform="translate(-204.462 -269.963)" fill="#fa875a"/>
    <path id="Path_109" data-name="Path 109" d="M318.856,373.208l.178.207a.394.394,0,0,1-.041.555l-6.944,5.983a.394.394,0,0,1-.555-.041l-2.928-3.4a.38.38,0,0,1,.04-.534l3.388-2.919a.379.379,0,0,1,.534.04l.974,1.131a.528.528,0,0,0,.745.055l1.452-1.251a2.277,2.277,0,0,1,3.155.175Z" transform="translate(-269.005 -324.035)" fill="#aa6100"/>
    <path id="Path_110" data-name="Path 110" d="M312.4,395.105l-2.639-3.063a.379.379,0,0,1,.04-.534l-1.185,1.021a.38.38,0,0,0-.04.534l2.8,3.252h0l1.374-1.184A.25.25,0,0,1,312.4,395.105Z" transform="translate(-269.01 -340.586)" fill="#884d00"/>
    <path id="Path_111" data-name="Path 111" d="M305.245,369.763l-4.154,3.579a.261.261,0,0,1-.369-.027l-1.007-1.169a.261.261,0,0,1,.027-.369L303.9,368.2a.261.261,0,0,1,.369.027l1.007,1.169A.262.262,0,0,1,305.245,369.763Z" transform="translate(-261.329 -320.252)" fill="#cc7400"/>
    <path id="Path_112" data-name="Path 112" d="M301.858,390l-.924-1.072c-.117-.136-.141-.308-.053-.384l-1.185,1.021c-.088.076-.064.248.053.384l.924,1.072c.117.136.284.185.372.109l1.185-1.021C302.142,390.189,301.975,390.14,301.858,390Z" transform="translate(-261.322 -338.011)" fill="#aa6100"/>
    <path id="Path_113" data-name="Path 113" d="M338.258,378.518l.236.274c.264.307.345.67.18.812l-6.944,5.983c-.165.142-.512.008-.777-.3l-.236-.274Z" transform="translate(-288.355 -329.285)" fill="#ffb655"/>
    <path id="Path_114" data-name="Path 114" d="M332.917,421.187l-1.185,1.021c-.165.142-.513.008-.777-.3l-.236-.274,1.185-1.021.236.274C332.4,421.2,332.752,421.329,332.917,421.187Z" transform="translate(-288.356 -365.907)" fill="#ff9811"/>
    <path id="Path_115" data-name="Path 115" d="M113.969,332.307l-2.59-1.9a.389.389,0,0,1-.069-.553l6.5-9.128a.472.472,0,0,1,.653-.1l3,2.247a.461.461,0,0,1,.082.65l-7.017,8.7A.413.413,0,0,1,113.969,332.307Z" transform="translate(-97.411 -278.842)" fill="#ffaf82"/>
    <path id="Path_116" data-name="Path 116" d="M112.542,330.47l6.515-8.75c.208-.273.5-.4.655-.288l-1.345-1.006c-.153-.114-.448.015-.655.288l-6.331,8.9c-.181.233-.22.5-.089.6l1.16.852C112.321,330.973,112.361,330.7,112.542,330.47Z" transform="translate(-97.403 -278.713)" fill="#fa875a"/>
    <path id="Path_117" data-name="Path 117" d="M92.4,403.891l-.165.218a.394.394,0,0,1-.551.077l-7.314-5.523a.393.393,0,0,1-.077-.551l2.7-3.58a.38.38,0,0,1,.531-.074l3.569,2.695a.38.38,0,0,1,.073.53l-.9,1.191a.529.529,0,0,0,.1.74l1.53,1.155a2.278,2.278,0,0,1,.5,3.12Z" transform="translate(-73.909 -343.085)" fill="#aa6100"/>
    <path id="Path_118" data-name="Path 118" d="M87.119,398.7l2.436-3.226a.38.38,0,0,1,.53-.074l-1.248-.943a.38.38,0,0,0-.53.074l-2.587,3.425h0l1.448,1.093A.249.249,0,0,1,87.119,398.7Z" transform="translate(-75.223 -343.086)" fill="#884d00"/>
    <path id="Path_119" data-name="Path 119" d="M105.006,389.957l-4.376-3.3a.261.261,0,0,1-.051-.366l.93-1.231a.261.261,0,0,1,.366-.051l4.376,3.3a.261.261,0,0,1,.051.366l-.93,1.231A.261.261,0,0,1,105.006,389.957Z" transform="translate(-88.103 -334.881)" fill="#cc7400"/>
    <path id="Path_120" data-name="Path 120" d="M101.873,387.126l.853-1.13c.108-.143.271-.2.364-.133l-1.248-.943c-.093-.07-.256-.011-.364.133l-.853,1.13c-.108.143-.121.316-.028.386l1.248.943C101.752,387.443,101.765,387.27,101.873,387.126Z" transform="translate(-88.111 -334.83)" fill="#aa6100"/>
    <path id="Path_121" data-name="Path 121" d="M90.679,427.866l-.218.288c-.244.323-.582.479-.756.348l-7.314-5.523c-.174-.131-.116-.5.128-.822l.218-.288Z" transform="translate(-72.24 -366.997)" fill="#ffb655"/>
    <path id="Path_122" data-name="Path 122" d="M83.642,423.921l-1.248-.943c-.173-.131-.116-.5.128-.823l.218-.288,1.248.943-.218.288C83.526,423.422,83.469,423.79,83.642,423.921Z" transform="translate(-72.242 -366.997)" fill="#ff9811"/>
    <path id="Path_123" data-name="Path 123" d="M135.668,247.069l.555,11.635a.475.475,0,0,0,.439.451l6.036.452a.475.475,0,0,0,.511-.484l-.277-13.177Z" transform="translate(-118.675 -213.957)" fill="#965028"/>
    <path id="Path_124" data-name="Path 124" d="M138.6,264.957l-1.934-.145a.475.475,0,0,1-.439-.451l-.555-11.636,1.789-.277Z" transform="translate(-118.678 -219.613)" fill="#69280f"/>
    <path id="Path_125" data-name="Path 125" d="M133.117,92.068a1.384,1.384,0,0,0-1.876.155l-5.526,6.046a.123.123,0,0,1-.177,0l-2.564-2.545.465-.479a.346.346,0,0,0-.008-.49l-3.322-3.221a2.4,2.4,0,0,0-3.4.052l-.171.176a2.4,2.4,0,0,0,.052,3.4l3.322,3.221a.346.346,0,0,0,.49-.008l.252-.26c3.115,3.4,2.922,3.132,4.125,4.123h0a1.9,1.9,0,0,0,2.669-.259l5.925-8A1.384,1.384,0,0,0,133.117,92.068Z" transform="translate(-101.444 -79.042)" fill="#4bb9e1"/>
    <path id="Path_126" data-name="Path 126" d="M140.08,242.483s-.524.908-1.789,3.1l-1.176,2.044a.381.381,0,0,1-.514.171l-6.4-2.748a1.549,1.549,0,0,0-.825-.11q-.2.028-.4.047c-4.066.384-4.382-.361-6.287-2.941-.032-.046-.063-.093-.094-.142-.016-.025-.032-.052-.048-.081s-.016-.027-.023-.04a13.2,13.2,0,0,1-1.194-4.225c-.017-.141-.032-.275-.044-.4l2.37-.76,7.042-2.259.458,2.145,8.784,5.675A.4.4,0,0,1,140.08,242.483Z" transform="translate(-106.158 -203.691)" fill="#965028"/>
    <path id="Path_127" data-name="Path 127" d="M138.292,260.694l-1.176,2.044a.381.381,0,0,1-.514.171l-6.4-2.748a1.549,1.549,0,0,0-.825-.109q-.2.028-.4.047c-4.066.384-4.382-.361-6.287-2.941a12.258,12.258,0,0,1-1.359-4.488c-.017-.141-.032-.275-.044-.4l2.37-.76a18.823,18.823,0,0,0,1.315,3.365l.85,1.2a9.384,9.384,0,0,0,6.569,2.683h.017a8.189,8.189,0,0,1,3.684.838Z" transform="translate(-106.159 -218.797)" fill="#80391b"/>
    <path id="Path_128" data-name="Path 128" d="M119.034,62.462l-3.924.751-.093-5.526,3.17-.388Z" transform="translate(-100.71 -49.846)" fill="#ffaf82"/>
    <path id="Path_129" data-name="Path 129" d="M116.077,59.275l.088,5.209-1.054.448-.092-5.527Z" transform="translate(-100.712 -51.565)" fill="#ff9b69"/>
    <path id="Path_130" data-name="Path 130" d="M114.452,109.126c-1.1.391-4.211,1.48-6.94,2.292a33.466,33.466,0,0,1-3.474.885.745.745,0,0,1-.87-.678l-1.18-18.38a3.85,3.85,0,0,1,1.633-3.58l.478.039c.333.025.606.044.85.06l.125.008.179.011h.024l.169.011.286.016.132.008.065,0,.207.012.043,0,.415.028.4.03c.145.011.3.023.471.038l.1.008c2.978.248,6.418,15.658,7.187,18.613A.477.477,0,0,1,114.452,109.126Z" transform="translate(-89.355 -78.002)" fill="#87afb9"/>
    <path id="Path_131" data-name="Path 131" d="M107.512,111.418a33.466,33.466,0,0,1-3.474.885.745.745,0,0,1-.87-.678l-1.18-18.38a3.85,3.85,0,0,1,1.633-3.58l.478.039c.333.027.606.046.85.06l.125.008.179.011h.024l.169.011.286.016.132.008.065,0,.207.012.043,0,.415.028.4.03.471.038a3.842,3.842,0,0,0-1.291,3.312Z" transform="translate(-89.355 -78.002)" fill="#6c9baa"/>
    <path id="Path_132" data-name="Path 132" d="M114.2,15.012a1.485,1.485,0,0,1-.485.055s-.686,1.448-.9,1.814a1.222,1.222,0,0,1-1.086.682c-.932.012-2.128-.884-3.145-1.919h0c-.454-.462-1.1-.227-1.462-.614a4.782,4.782,0,0,1-1.258-3.212c0-.054,0-.106,0-.16,0-.017,0-.035,0-.054,0-.054.007-.109.012-.162a.025.025,0,0,1,0-.013c0-.059.011-.118.019-.176a.143.143,0,0,1,0-.024c.005-.051.013-.1.023-.153.02-.113.046-.224.075-.334l.024-.085a3.635,3.635,0,0,1,.185-.5,3.445,3.445,0,0,1,.792-1.1,4.515,4.515,0,0,1,6.109.412,3.62,3.62,0,0,1,.714,3.107,4.835,4.835,0,0,0,.657,1.688A.541.541,0,0,1,114.2,15.012Z" transform="translate(-92.75 -7.006)" fill="#ffaf82"/>
    <path id="Path_133" data-name="Path 133" d="M111.734,31.646c-.932.012-2.128-.884-3.145-1.919h0c-.454-.462-1.1-.227-1.462-.614a4.782,4.782,0,0,1-1.258-3.212c0-.054,0-.106,0-.16,0-.017,0-.035,0-.054,0-.054.007-.109.012-.162a.025.025,0,0,1,0-.013c0-.059.011-.118.019-.176a.142.142,0,0,1,0-.024c.005-.051.013-.1.023-.153.02-.113.046-.224.075-.334l.024-.085a3.636,3.636,0,0,1,.185-.5,5.571,5.571,0,0,0,1.442,4.264c.419.453,1.178.176,1.709.717C110.143,30.009,110.948,30.959,111.734,31.646Z" transform="translate(-92.75 -21.089)" fill="#ff9b69"/>
    <path id="Path_134" data-name="Path 134" d="M107.308,7.773a4.045,4.045,0,0,1-.2,1.071.214.214,0,0,1-.376.059.651.651,0,0,0-.66-.334c-.267.066-.582.462-.507,1.155a.43.43,0,0,1-.115.346,5.731,5.731,0,0,1-1.786,1.431c-.676.173-.343.159-.913.153-1.494-.389-2.041-2.411-1.954-4.2a3.28,3.28,0,1,1,6.508.319Z" transform="translate(-88.334 -3.439)" fill="#aa6432"/>
    <path id="Path_135" data-name="Path 135" d="M103.05,7.826a5.358,5.358,0,0,0,.278,3.768c-.228.072-.141.062-.572.057-1.5-.389-2.042-2.411-1.954-4.2a3.478,3.478,0,0,1,3.434-3.5,2.97,2.97,0,0,1,1.592.562A5.368,5.368,0,0,0,103.05,7.826Z" transform="translate(-88.336 -3.437)" fill="#965028"/>
    <path id="Path_136" data-name="Path 136" d="M107.364,4.013l-8.757,1c-.241.034-.218-.177-.239-.419-.153-1.8.287-4,2.606-4.335,4.914-1.035,5.7,1.239,6.358,2.8.043.1,3.182-.211,3.213-.105a.481.481,0,0,1-.4.662C109.109,3.791,107.364,4.013,107.364,4.013Z" transform="translate(-86.203 0)" fill="#46a5cd"/>
    <path id="Path_137" data-name="Path 137" d="M223.672,187.836h0a.54.54,0,0,1-.6-.463l-7.288-39.73a.979.979,0,0,1,.739-1.175h0a.979.979,0,0,1,1.091.859l6.47,39.872A.54.54,0,0,1,223.672,187.836Z" transform="translate(-188.353 -127.407)" fill="#ba6746"/>
    <path id="Path_138" data-name="Path 138" d="M245.88,134.746h0a.557.557,0,0,1-.766-.149L218.77,101.263a1.011,1.011,0,0,1,.07-1.427h0a1.011,1.011,0,0,1,1.4.289l25.689,33.842A.557.557,0,0,1,245.88,134.746Z" transform="translate(-190.743 -86.7)" fill="#4bb9e1"/>
    <path id="Path_140" data-name="Path 140" d="M85.11,109.909l-1.573-1.449.787.725-.787-.724A30.588,30.588,0,0,0,89.566,97.8a8.4,8.4,0,0,0-.7-6.457c-.286-.5-.883-1.342-1.677-1.342h-.008c-.491,0-1.832.374-3.689,3.74l-1.873-1.033c1.767-3.2,3.633-4.833,5.548-4.846h.023a4.166,4.166,0,0,1,3.536,2.423,10.547,10.547,0,0,1,.9,8.11A32.237,32.237,0,0,1,85.11,109.909Z" transform="translate(-71.654 -76.437)" fill="#82cd64"/>
    <path id="Path_141" data-name="Path 141" d="M116.577,125.653l-2.928-10.6a1.739,1.739,0,0,1,1.277-2.1h0a1.739,1.739,0,0,1,2.2,1.083l2.656,9.54Z" transform="translate(-99.466 -98.195)" fill="#fa875a"/>
    <path id="Path_142" data-name="Path 142" d="M109.611,101.523l-1.488-5.114a2.768,2.768,0,0,0-3.431-1.884l-.271.079a2.768,2.768,0,0,0-1.884,3.431l1.488,5.114a.4.4,0,0,0,.494.271l4.82-1.4A.4.4,0,0,0,109.611,101.523Z" transform="translate(-89.756 -82.134)" fill="#46738c"/>
    <path id="Path_143" data-name="Path 143" d="M148.5,164.057a1.451,1.451,0,0,1-.757,1.877l-10.612,4.688a2.183,2.183,0,0,1-2.817-1.261h0a2.183,2.183,0,0,1,1.261-2.817l11.033-3.567a1.452,1.452,0,0,1,1.79.832Z" transform="translate(-117.367 -141.717)" fill="#ffaf82"/>
    <path id="Path_144" data-name="Path 144" d="M100.5,3.36a7.4,7.4,0,0,0-.3,2.337l-1.6.183c-.241.034-.219-.176-.238-.418-.153-1.8.287-4,2.606-4.335q.371-.078.712-.131A7.434,7.434,0,0,0,100.5,3.36Z" transform="translate(-86.203 -0.866)" fill="#4191be"/>
    <ellipse id="Ellipse_24" data-name="Ellipse 24" cx="0.442" cy="0.442" rx="0.442" ry="0.442" transform="translate(19.628 5.13)" fill="#ba6746"/>
    <path id="Path_145" data-name="Path 145" d="M48.2,198.391l-4.366,1.218a.992.992,0,0,1-1.241-.771l-2.136-6.7a2.308,2.308,0,0,1,.419-2.171l1.523-1.846c.036-.043.071-.089.1-.134A26.3,26.3,0,0,0,48.2,198.391Z" transform="translate(-35.748 -163.534)" fill="#64a54b"/>
  </g>
</svg>
